<?xml version="1.0" encoding="utf-8"?>
<!-- Generator: Adobe Illustrator 21.0.0, SVG Export Plug-In . SVG Version: 6.00 Build 0)  -->
<svg version="1.1" id="Capa_1" xmlns="http://www.w3.org/2000/svg" xmlns:xlink="http://www.w3.org/1999/xlink" x="0px" y="0px"
	 viewBox="0 0 300 140" style="enable-background:new 0 0 300 140;" xml:space="preserve">
<style type="text/css">
	.st0{fill:none;stroke:#FFFFFF;stroke-width:13;stroke-miterlimit:10;}
</style>
<image style="overflow:visible;enable-background:new    ;" width="177" height="177" xlink:href="F24B7DB6.png"  transform="matrix(0.3839 0 0 0.4209 5.2818 20.75)">
</image>
<image style="overflow:visible;opacity:0.18;enable-background:new    ;" width="300" height="138" xlink:href="F24B7DBA.jpeg"  transform="matrix(0.9999 0 0 0.9999 33.0188 -173.9914)">
</image>
<image style="overflow:visible;enable-background:new    ;" width="177" height="177" xlink:href="F24B7DBA.png"  transform="matrix(0.3281 0 0 0.3281 239.9964 30.1754)">
</image>
<image style="overflow:visible;enable-background:new    ;" width="177" height="177" xlink:href="F24B7DBE.png"  transform="matrix(0.339 0 0 0.339 86.4663 25.2127)">
</image>
<circle class="st0" cx="119" cy="57.5" r="38.8"/>
<image style="overflow:visible;enable-background:new    ;" width="177" height="177" xlink:href="F24B7DBD.png"  transform="matrix(0.3983 0 0 0.3983 155.7073 17.75)">
</image>
<g>
	<path d="M19.6,108.9c-0.7-2.6-1.4-4.9-1.9-7.1v5.2c0,0.4,0,1.2,0.1,2.3c0.1,1.2,0.1,1.9,0.1,2.3c0,0.1-0.1,0.2-0.2,0.2
		c-0.1,0.1-0.3,0.1-0.4,0.1c-0.2,0-0.3-0.1-0.3-0.3v-0.5c0-0.3,0-0.6,0-0.7c0-0.6,0-1.5-0.1-2.7s-0.1-2-0.1-2.3v-2
		c0-0.3,0-0.8,0-1.5c0-0.6,0.1-1.1,0.1-1.5v-0.1c0-0.5,0.1-0.8,0.4-0.8c0.1,0,0.3,0.2,0.5,0.7c0.4,0.8,0.8,2.1,1.3,4.1
		c0.3,1.2,0.7,2.6,1.1,4.4c0,0,0.1,0.3,0.3,1.1v0.1c0-1,0-2,0-2.8v-2.8v-4.7c0-0.3,0.2-0.4,0.5-0.4s0.4,0.2,0.4,0.6v0.1
		c-0.1,0.1-0.1,0.3-0.1,0.5c0,0.7,0,1.6,0,2.9s0,2.3,0,3v4.9c0,0.2,0,0.3-0.1,0.5s-0.2,0.2-0.3,0.2
		C20.7,112.2,20.3,111.1,19.6,108.9z"/>
	<path d="M26.3,111.9c-0.1-0.1-0.1-0.2-0.1-0.3v-2.1c-0.1-0.1-0.4-0.2-0.8-0.3c-0.4-0.1-0.7-0.1-1.1-0.1c-0.1,0.2-0.2,0.5-0.3,0.8
		l-0.1,0.3c0,0.1,0,0.2-0.1,0.5s-0.1,0.5-0.2,0.7s-0.1,0.3-0.2,0.4c-0.4,0-0.6-0.1-0.7-0.3c0.1-0.2,0.3-0.7,0.4-1.5l0.5-2.9
		c0.2-1.4,0.5-2.6,0.6-3.6c0.2-1,0.4-1.8,0.6-2.5s0.5-1.1,0.7-1.1s0.4,0,0.5,0.1c0,0.4,0.1,1.5,0.3,3.1c0.2,1.6,0.3,2.7,0.3,3.3
		c0,0.6,0.1,1.4,0.2,2.4c0.1,1.1,0.2,1.9,0.2,2.6c0,0.4-0.2,0.5-0.5,0.5C26.5,112,26.4,112,26.3,111.9z M26.2,108.5
		c0-0.5-0.1-1-0.2-1.7c-0.2-2.4-0.4-3.9-0.4-4.4v-0.1c-0.1,0.1-0.3,0.6-0.4,1.4s-0.4,1.8-0.5,2.8s-0.2,1.6-0.3,2
		c0.4,0.1,0.9,0.2,1.4,0.2C26,108.6,26.1,108.5,26.2,108.5z"/>
	<path d="M31.5,111.7L31.5,111.7c0-0.6-0.1-1.2-0.3-1.9s-0.4-1.5-0.7-2.5c-0.2-0.7-0.4-1.4-0.6-2v6.3c0,0.2,0,0.3-0.1,0.4
		s-0.2,0.1-0.3,0.1c-0.1,0-0.2,0-0.3-0.1c-0.1-0.1-0.1-0.2-0.1-0.3v-0.1v-4.7c0-1.4,0-2.9,0-4.7v-2c0-0.1,0-0.2,0.1-0.3
		c0.1,0,0.2-0.1,0.3-0.1c0.3,0,0.5,0.1,0.7,0.2s0.4,0.2,0.6,0.4c0.3,0.4,0.5,0.8,0.6,1.3c0,0.2,0.1,0.5,0.1,0.7s0,0.3,0,0.5
		s0,0.3-0.1,0.4c0,0.1-0.1,0.3-0.1,0.5c-0.1,0.2-0.1,0.4-0.1,0.4l-0.2,0.4l-0.2,0.4c0,0.4,0.1,0.9,0.2,1.5s0.3,1.1,0.4,1.6
		c0.1,0.4,0.3,0.9,0.6,1.8l0.5,1.4l0,0c0,0.2,0,0.3,0,0.5s-0.1,0.3-0.3,0.3C31.9,112.2,31.7,112,31.5,111.7z M30.4,104l0.2-1.4
		c0-0.1,0-0.1,0-0.2c0-0.3-0.1-0.7-0.2-1.1c-0.1-0.2-0.1-0.4-0.2-0.5s-0.2-0.2-0.3-0.2v1.6c0,0.7,0,1.3,0,1.7c0,0.4,0,0.6,0,0.7
		C30.1,104.4,30.2,104.2,30.4,104z"/>
	<path d="M36.1,111.7L36.1,111.7c0-0.6-0.1-1.2-0.3-1.9s-0.4-1.5-0.7-2.5c-0.2-0.7-0.4-1.4-0.6-2v6.3c0,0.2,0,0.3-0.1,0.4
		s-0.2,0.1-0.3,0.1s-0.2,0-0.3-0.1s-0.1-0.2-0.1-0.3v-0.1v-4.7c0-1.4,0-2.9,0-4.7v-2c0-0.1,0-0.2,0.1-0.3c0.1,0,0.2-0.1,0.3-0.1
		c0.3,0,0.5,0.1,0.7,0.2s0.4,0.2,0.6,0.4c0.3,0.4,0.5,0.8,0.6,1.3c0,0.2,0.1,0.5,0.1,0.7s0,0.3,0,0.5s0,0.3-0.1,0.4
		c0,0.1-0.1,0.3-0.1,0.5c-0.1,0.2-0.1,0.4-0.1,0.4l-0.2,0.4l-0.2,0.4c0,0.4,0.1,0.9,0.2,1.5c0.1,0.6,0.3,1.1,0.4,1.6
		c0.1,0.4,0.3,0.9,0.6,1.8l0.5,1.4l0,0c0,0.2,0,0.3,0,0.5s-0.1,0.3-0.3,0.3C36.5,112.2,36.3,112,36.1,111.7z M35.1,104l0.2-1.4
		c0-0.1,0-0.1,0-0.2c0-0.3-0.1-0.7-0.2-1.1c-0.1-0.2-0.1-0.4-0.2-0.5c-0.1-0.1-0.2-0.2-0.3-0.2v1.6c0,0.7,0,1.3,0,1.7
		c0,0.4,0,0.6,0,0.7C34.7,104.4,34.9,104.2,35.1,104z"/>
	<path d="M41.2,111.9c-0.1-0.1-0.1-0.2-0.1-0.3v-2.1c-0.1-0.1-0.4-0.2-0.8-0.3c-0.4-0.1-0.7-0.1-1.1-0.1c-0.1,0.2-0.2,0.5-0.3,0.8
		l-0.1,0.3c0,0.1,0,0.2-0.1,0.5s-0.1,0.5-0.2,0.7s-0.1,0.3-0.2,0.4c-0.4,0-0.6-0.1-0.7-0.3c0.1-0.2,0.3-0.7,0.4-1.5l0.5-2.9
		c0.2-1.4,0.5-2.6,0.6-3.6c0.2-1,0.4-1.8,0.6-2.5c0.2-0.7,0.5-1.1,0.7-1.1s0.4,0,0.5,0.1c0,0.4,0.1,1.5,0.3,3.1s0.3,2.7,0.3,3.3
		c0,0.6,0.1,1.4,0.2,2.4c0.1,1.1,0.2,1.9,0.2,2.6c0,0.4-0.2,0.5-0.5,0.5C41.4,112,41.3,112,41.2,111.9z M41.1,108.5
		c0-0.5-0.1-1-0.2-1.7c-0.2-2.4-0.4-3.9-0.4-4.4v-0.1c-0.1,0.1-0.3,0.6-0.4,1.4s-0.4,1.8-0.5,2.8s-0.2,1.6-0.3,2
		c0.4,0.1,0.9,0.2,1.4,0.2C40.8,108.6,40.9,108.5,41.1,108.5z"/>
	<path d="M44.3,111.9c-0.2-0.1-0.2-0.2-0.2-0.4c0.2-0.2,0.4-0.9,0.4-1.9c0-0.6,0-1.5-0.1-2.7c-0.1-1.1-0.2-2-0.2-2.6v-0.9
		c0-0.3,0-0.5,0-0.9c0-0.3-0.1-0.7-0.2-1.1c-0.1-0.5-0.2-0.8-0.2-1c0-0.4,0.4-0.6,1.2-0.6h0.2c0.6,0,1.1,0.2,1.5,0.5
		c0.3,0.3,0.6,0.7,0.9,1.3c0.2,0.4,0.3,0.9,0.4,1.6c0.1,0.6,0.1,1.1,0.1,1.4v0.5v0.8v0.1c0,0.1,0,0.1,0,0.2s0,0.1,0,0.2
		c0,0.3-0.1,0.7-0.2,1.2c-0.1,0.5-0.2,1-0.4,1.4c-0.5,1.2-1,2-1.6,2.5c-0.4,0.3-0.7,0.4-1.1,0.4C44.6,112,44.4,112,44.3,111.9z
		 M46.2,110c0.3-0.5,0.5-1,0.7-1.5c0.3-1,0.4-2.1,0.4-3.2c0-0.6-0.1-1.2-0.2-1.9c-0.1-0.7-0.4-1.3-0.8-1.8c-0.2-0.3-0.4-0.5-0.7-0.6
		s-0.6-0.2-0.9-0.2l0,0c0,1,0.1,2.4,0.2,4.4c0.1,1.9,0.2,3.4,0.2,4.4v1.5C45.5,110.9,45.9,110.5,46.2,110z"/>
	<path d="M51.4,112.2c-0.2-0.2-0.4-0.5-0.6-0.8c-0.3-0.6-0.5-1.4-0.7-2.4c-0.1-0.7-0.2-1.5-0.2-2.4v-0.8v-0.9c0-0.3,0-0.6,0-1
		c0-0.6,0-1.2,0.1-1.7c0-0.5,0.1-1,0.3-1.5c0.2-0.4,0.4-0.7,0.7-0.9c0.2-0.1,0.4-0.1,0.6-0.1c0.6,0,1,0.2,1.3,0.7
		c0.4,0.5,0.6,1.1,0.7,1.7c0.2,0.7,0.3,1.5,0.3,2.1c0,0.8,0.1,1.5,0.1,2.1v0.9c0,0.2,0,0.5-0.1,1c0,0.4-0.1,0.7-0.1,1v0.1
		c-0.1,0.3-0.1,0.7-0.1,1.1c0,0.3-0.1,0.6-0.2,0.9s-0.3,0.6-0.5,0.8c-0.2,0.3-0.5,0.4-0.8,0.4C51.9,112.4,51.6,112.4,51.4,112.2z
		 M52.7,111c0.1-0.4,0.2-0.8,0.3-1.3s0.1-1.1,0.2-1.7c0-0.3,0-0.6,0-1.1v-1.5c0-0.6-0.1-1.3-0.2-2.2c-0.1-0.7-0.2-1.4-0.5-2
		c-0.1-0.3-0.2-0.5-0.4-0.6s-0.3-0.2-0.5-0.2c-0.3,0-0.5,0.2-0.6,0.6c-0.2,0.4-0.3,0.9-0.3,1.4c-0.1,0.6-0.1,1.1-0.1,1.6v0.5
		c0,0.1,0,0.4,0,0.6v0.1c0,0.7,0.1,1.6,0.2,2.6c0.2,1.4,0.4,2.4,0.8,3c0.2,0.4,0.4,0.6,0.7,0.6C52.4,111.6,52.6,111.4,52.7,111z"/>
	<path d="M58.1,111.7L58.1,111.7c0-0.6-0.1-1.2-0.3-1.9s-0.4-1.5-0.7-2.5c-0.2-0.7-0.4-1.4-0.6-2v6.3c0,0.2,0,0.3-0.1,0.4
		s-0.2,0.1-0.3,0.1s-0.2,0-0.3-0.1s-0.1-0.2-0.1-0.3v-0.1v-4.7c0-1.4,0-2.9,0-4.7v-2c0-0.1,0-0.2,0.1-0.3c0.1,0,0.2-0.1,0.3-0.1
		c0.3,0,0.5,0.1,0.7,0.2s0.4,0.2,0.6,0.4c0.3,0.4,0.5,0.8,0.6,1.3c0,0.2,0.1,0.5,0.1,0.7s0,0.3,0,0.5s0,0.3-0.1,0.4
		c0,0.1-0.1,0.3-0.1,0.5c-0.1,0.2-0.1,0.4-0.1,0.4l-0.2,0.4l-0.2,0.4c0,0.4,0.1,0.9,0.2,1.5c0.1,0.6,0.3,1.1,0.4,1.6
		c0.1,0.4,0.3,0.9,0.6,1.8l0.5,1.4l0,0c0,0.2,0,0.3,0,0.5s-0.1,0.3-0.3,0.3C58.5,112.2,58.3,112,58.1,111.7z M57,104l0.2-1.4
		c0-0.1,0-0.1,0-0.2c0-0.3-0.1-0.7-0.2-1.1c-0.1-0.2-0.1-0.4-0.2-0.5c-0.1-0.1-0.2-0.2-0.3-0.2v1.6c0,0.7,0,1.3,0,1.7
		c0,0.4,0,0.6,0,0.7C56.6,104.4,56.8,104.2,57,104z"/>
</g>
<g>
	<path d="M103.3,112c-0.1-0.1-0.2-0.2-0.2-0.4c0-0.1,0-0.2,0.1-0.4c0-0.1,0-0.3,0-0.3c0-0.9-0.1-2.8-0.2-5.5
		c-0.1-2.3-0.2-4.1-0.2-5.5c0-0.1,0-0.2,0.1-0.2c0.1-0.1,0.2-0.1,0.3-0.1c0.1,0,0.2,0,0.3,0.1c0.1,0.1,0.1,0.2,0.1,0.3
		c0,0.6,0,1.6,0.1,2.9c0.1,1.4,0.1,2.4,0.1,2.9v0.2v0.2v0.1v0.1c0,0.9,0,2.3,0,4.2v0.4h1.2c0.2,0.2,0.3,0.3,0.3,0.5
		c0,0.1,0,0.2-0.1,0.3c-0.1,0.1-0.2,0.1-0.3,0.1c0,0-0.1,0-0.2,0h-0.1c-0.1,0-0.2,0-0.3,0H104c-0.1,0-0.2,0-0.3,0
		C103.6,112,103.4,112.1,103.3,112C103.6,112.2,103.4,112.1,103.3,112z"/>
	<path d="M108.3,112.2c-0.2-0.2-0.4-0.5-0.6-0.8c-0.3-0.6-0.5-1.4-0.7-2.4c-0.1-0.7-0.2-1.5-0.2-2.4v-0.8v-0.9c0-0.3,0-0.6,0-1
		c0-0.6,0-1.2,0.1-1.7c0-0.5,0.1-1,0.3-1.5c0.2-0.4,0.4-0.7,0.7-0.9c0.2-0.1,0.4-0.1,0.6-0.1c0.6,0,1,0.2,1.3,0.7
		c0.4,0.5,0.6,1.1,0.7,1.7c0.2,0.7,0.3,1.5,0.3,2.1c0,0.8,0.1,1.5,0.1,2.1v0.9c0,0.2,0,0.5-0.1,1c0,0.4-0.1,0.7-0.1,1v0.1
		c-0.1,0.3-0.1,0.7-0.1,1.1c0,0.3-0.1,0.6-0.2,0.9s-0.3,0.6-0.5,0.8c-0.2,0.3-0.5,0.4-0.8,0.4C108.8,112.4,108.5,112.4,108.3,112.2z
		 M109.6,111c0.1-0.4,0.2-0.8,0.3-1.3c0.1-0.5,0.1-1.1,0.2-1.7c0-0.3,0-0.6,0-1.1v-1.5c0-0.6-0.1-1.3-0.2-2.2
		c-0.1-0.7-0.2-1.4-0.5-2c-0.1-0.3-0.2-0.5-0.4-0.6c-0.2-0.1-0.3-0.2-0.5-0.2c-0.3,0-0.5,0.2-0.6,0.6c-0.2,0.4-0.3,0.9-0.3,1.4
		c-0.1,0.6-0.1,1.1-0.1,1.6v0.5c0,0.1,0,0.4,0,0.6v0.1c0,0.7,0.1,1.6,0.2,2.6c0.2,1.4,0.4,2.4,0.8,3c0.2,0.4,0.4,0.6,0.7,0.6
		C109.3,111.6,109.5,111.4,109.6,111z"/>
	<path d="M112.7,111.7v-2v-2c0-0.7,0-1.8,0-3.2c0-1.4,0-2.5,0-3.2v-0.1c0-0.3,0-0.5,0.1-0.8s0.2-0.4,0.5-0.4c0.7,0,1.3,0.2,1.8,0.7
		c0.4,0.5,0.7,1.1,0.7,1.9c0,0.5-0.1,1-0.4,1.5s-0.6,0.9-0.9,1.2c0.6,0.4,1.1,1,1.4,1.6c0.3,0.7,0.4,1.4,0.4,2.2
		c0,0.4-0.1,0.8-0.4,1.4c-0.3,0.7-0.7,1.1-1.3,1.4c-0.3,0.2-0.7,0.2-1.1,0.2h-0.1C112.9,112.1,112.7,112,112.7,111.7z M114.3,104.4
		c0.2-0.3,0.3-0.7,0.4-1.1c0-0.1,0.1-0.3,0.2-0.4v-0.6c0-0.3-0.1-0.6-0.4-0.9c-0.2-0.3-0.5-0.4-0.8-0.4c-0.1,0-0.2,0.2-0.2,0.5
		c0,0.7,0,1.3,0,1.9v1.8C113.8,105,114.1,104.8,114.3,104.4z M114.9,110.6c0.3-0.4,0.5-0.9,0.5-1.5c0-0.5,0-0.9-0.1-1.4
		c-0.1-0.4-0.2-0.7-0.3-0.9c-0.1-0.2-0.2-0.4-0.4-0.5c-0.1-0.1-0.2-0.2-0.3-0.3h-0.1h-0.6c0.1,1.2,0.1,3,0.1,5.3
		C114.1,111.2,114.6,111,114.9,110.6z"/>
	<path d="M119,112.2c-0.2-0.2-0.4-0.5-0.6-0.8c-0.3-0.6-0.5-1.4-0.7-2.4c-0.1-0.7-0.2-1.5-0.2-2.4v-0.8v-0.9c0-0.3,0-0.6,0-1
		c0-0.6,0-1.2,0.1-1.7c0-0.5,0.1-1,0.3-1.5c0.2-0.4,0.4-0.7,0.7-0.9c0.2-0.1,0.4-0.1,0.6-0.1c0.6,0,1,0.2,1.3,0.7
		c0.4,0.5,0.6,1.1,0.7,1.7c0.2,0.7,0.3,1.5,0.3,2.1c0,0.8,0.1,1.5,0.1,2.1v0.9c0,0.2,0,0.5-0.1,1c0,0.4-0.1,0.7-0.1,1v0.1
		c-0.1,0.3-0.1,0.7-0.1,1.1c0,0.3-0.1,0.6-0.2,0.9s-0.3,0.6-0.5,0.8c-0.2,0.3-0.5,0.4-0.8,0.4C119.5,112.4,119.2,112.4,119,112.2z
		 M120.3,111c0.1-0.4,0.2-0.8,0.3-1.3c0.1-0.5,0.1-1.1,0.2-1.7c0-0.3,0-0.6,0-1.1v-1.5c0-0.6-0.1-1.3-0.2-2.2
		c-0.1-0.7-0.2-1.4-0.5-2c-0.1-0.3-0.2-0.5-0.4-0.6c-0.2-0.1-0.3-0.2-0.5-0.2c-0.3,0-0.5,0.2-0.6,0.6c-0.2,0.4-0.3,0.9-0.3,1.4
		c-0.1,0.6-0.1,1.1-0.1,1.6v0.5c0,0.1,0,0.4,0,0.6v0.1c0,0.7,0.1,1.6,0.2,2.6c0.2,1.4,0.4,2.4,0.8,3c0.2,0.4,0.4,0.6,0.7,0.6
		C120,111.6,120.2,111.4,120.3,111z"/>
</g>
<g>
	<path d="M168.3,112c-0.3-0.1-0.5-0.3-0.6-0.6c-0.2-0.2-0.3-0.5-0.4-0.9c-0.1-0.3-0.2-0.7-0.3-1.1c-0.1-0.6-0.2-1.5-0.3-2.5
		c0-0.2,0-0.7,0-1.3v-1c0-0.3,0-0.6,0-0.9c0-0.6,0-1.1,0.1-1.5c0-0.2,0-0.3,0-0.5c0-0.6,0.2-1.2,0.7-1.6s1.1-0.6,1.8-0.6
		c0.3,0,0.5,0.1,0.8,0.2s0.4,0.3,0.4,0.6c0,0.1,0,0.2-0.1,0.3c-0.1,0.1-0.2,0.1-0.3,0.1s-0.2,0-0.3,0s-0.2-0.1-0.2-0.1h-0.2l0,0
		c-0.4,0-0.7,0.1-1,0.3c-0.2,0.1-0.3,0.4-0.4,0.7c0,0.1-0.1,0.3-0.1,0.4s0,0.3,0,0.5c0,0.1,0,0.3,0,0.5v0.6v0.5c0,0.2,0,0.3-0.1,0.6
		c-0.1,0.3-0.1,0.5-0.1,0.6v0.4c0,0.4,0,1,0,1.7c0,0.6,0.1,1.2,0.2,1.8c0.1,0.6,0.3,1,0.5,1.4c0.3,0.4,0.6,0.6,1,0.6
		c0.2,0,0.4-0.1,0.7-0.3c0.3-0.2,0.5-0.3,0.6-0.3s0.3,0.1,0.5,0.2c0,0.4-0.1,0.7-0.4,0.9c-0.3,0.2-0.6,0.3-1,0.4c-0.2,0-0.4,0-0.5,0
		C168.9,112.3,168.6,112.2,168.3,112z"/>
	<path d="M175.1,111.9c-0.1-0.1-0.1-0.2-0.1-0.3v-2.1c-0.1-0.1-0.4-0.2-0.8-0.3c-0.4-0.1-0.7-0.1-1.1-0.1c-0.1,0.2-0.2,0.5-0.3,0.8
		l-0.1,0.3c0,0.1,0,0.2-0.1,0.5s-0.1,0.5-0.2,0.7s-0.1,0.3-0.2,0.4c-0.4,0-0.6-0.1-0.7-0.3c0.1-0.2,0.3-0.7,0.4-1.5l0.5-2.9
		c0.2-1.4,0.5-2.6,0.6-3.6c0.2-1,0.4-1.8,0.6-2.5c0.2-0.7,0.5-1.1,0.7-1.1s0.4,0,0.5,0.1c0,0.4,0.1,1.5,0.3,3.1s0.3,2.7,0.3,3.3
		c0,0.6,0.1,1.4,0.2,2.4c0.1,1.1,0.2,1.9,0.2,2.6c0,0.4-0.2,0.5-0.5,0.5C175.3,112,175.2,112,175.1,111.9z M175,108.5
		c0-0.5-0.1-1-0.2-1.7c-0.2-2.4-0.4-3.9-0.4-4.4v-0.1c-0.1,0.1-0.3,0.6-0.4,1.4c-0.2,0.9-0.4,1.8-0.5,2.8s-0.2,1.6-0.3,2
		c0.4,0.1,0.9,0.2,1.4,0.2C174.8,108.6,174.9,108.5,175,108.5z"/>
	<path d="M178.2,111.9c-0.1-0.1-0.1-0.2-0.1-0.4v-2.7c0-1.3,0-2.3,0-3c0-2.5-0.1-4.4-0.4-5.7c0.2-0.2,0.4-0.4,0.6-0.4
		c0.4,0,0.8,0.1,1.1,0.3c0.3,0.2,0.6,0.4,0.8,0.7c0.4,0.6,0.6,1.3,0.6,2.1c0,0.8-0.2,1.5-0.5,2.1s-0.8,1.1-1.5,1.5v1.6v0.8
		c0,0.2,0,0.4,0,0.8c0,0.7,0,1.3,0,1.7c0,0.2,0,0.4-0.1,0.5s-0.2,0.2-0.4,0.2C178.4,112.1,178.3,112,178.2,111.9z M179.8,104.4
		c0.2-0.4,0.3-0.9,0.3-1.5l0,0c0-0.2,0-0.6-0.1-0.9c0-0.1-0.1-0.3-0.2-0.4c-0.1-0.1-0.1-0.2-0.1-0.2c-0.1-0.1-0.3-0.3-0.6-0.5
		l-0.4-0.3c0,0.5,0,1.4,0.1,2.5l0.1,2.5C179.3,105.3,179.6,104.9,179.8,104.4z"/>
	<path d="M182.9,112c-0.2-0.1-0.3-0.2-0.3-0.4v-9.3c0-0.2,0-0.5-0.1-0.8s-0.1-0.6-0.1-0.8l0,0c0.2-0.3,0.3-0.5,0.4-0.6
		c0.1,0,0.3,0,0.6-0.1c0.2,0,0.4-0.1,0.6-0.1s0.3,0.1,0.5,0.2s0.2,0.2,0.2,0.4c0,0.3-0.2,0.5-0.7,0.5h-0.2c-0.1,0-0.1,0-0.2,0
		c-0.1,0-0.2,0-0.2,0c0,0.4,0,0.8,0.1,1.3v0.4v0.9c0,0.2,0,0.5,0,0.9v0.9h0.2c0.2-0.1,0.4-0.1,0.5-0.1s0.2,0,0.3,0.1
		s0.1,0.2,0.1,0.3c0,0.1,0,0.2-0.1,0.3c-0.1,0.1-0.2,0.2-0.3,0.2H184h-0.2c-0.2,0-0.3,0-0.3,0.1v4.9h0.9c0.6,0,0.9,0.1,0.9,0.4v0.1
		c-0.1,0.1-0.2,0.2-0.4,0.3c-0.2,0.1-0.3,0.1-0.5,0.2h-0.5h-0.5C183.3,112.1,183.1,112.1,182.9,112z"/>
	<path d="M189.4,111.7L189.4,111.7c0-0.6-0.1-1.2-0.3-1.9s-0.4-1.5-0.7-2.5c-0.2-0.7-0.4-1.4-0.6-2v6.3c0,0.2,0,0.3-0.1,0.4
		s-0.2,0.1-0.3,0.1s-0.2,0-0.3-0.1s-0.1-0.2-0.1-0.3v-0.1v-4.7c0-1.4,0-2.9,0-4.7v-2c0-0.1,0-0.2,0.1-0.3c0.1,0,0.2-0.1,0.3-0.1
		c0.3,0,0.5,0.1,0.7,0.2s0.4,0.2,0.6,0.4c0.3,0.4,0.5,0.8,0.6,1.3c0,0.2,0.1,0.5,0.1,0.7s0,0.3,0,0.5s0,0.3-0.1,0.4
		c0,0.1-0.1,0.3-0.1,0.5c-0.1,0.2-0.1,0.4-0.1,0.4l-0.2,0.4l-0.2,0.4c0,0.4,0.1,0.9,0.2,1.5c0.1,0.6,0.3,1.1,0.4,1.6
		c0.1,0.4,0.3,0.9,0.6,1.8l0.5,1.4l0,0c0,0.2,0,0.3,0,0.5s-0.1,0.3-0.3,0.3C189.8,112.2,189.6,112,189.4,111.7z M188.3,104l0.2-1.4
		c0-0.1,0-0.1,0-0.2c0-0.3-0.1-0.7-0.2-1.1c-0.1-0.2-0.1-0.4-0.2-0.5c-0.1-0.1-0.2-0.2-0.3-0.2v1.6c0,0.7,0,1.3,0,1.7
		c0,0.4,0,0.6,0,0.7C187.9,104.4,188.1,104.2,188.3,104z"/>
	<path d="M192.8,111.4c-0.4-0.6-0.7-1.3-0.9-2.2c-0.2-0.9-0.3-1.9-0.4-2.9c-0.1-0.9-0.1-2-0.1-3.1V102c0-0.4,0-0.8,0-1.2
		c-0.1-0.1-0.1-0.2-0.1-0.3s0-0.2,0.1-0.3c0.1-0.1,0.2-0.2,0.3-0.2c0.4,0,0.6,0.4,0.6,1.1c0,0.5,0,1.4,0.1,2.8s0.1,2.3,0.1,2.8
		c0.1,0.1,0.1,0.4,0.2,0.8c0,0.4,0.1,0.8,0.1,1s0,0.5,0.1,0.9s0.2,0.7,0.3,1c0.1,0.4,0.3,0.7,0.5,0.9s0.5,0.4,0.7,0.4
		c0.1,0,0.3,0,0.4-0.1s0.2-0.2,0.2-0.4c0.1-0.3,0.1-0.6,0.1-0.9v-3.1c0-0.4,0-0.9-0.1-1.5c-0.1-0.7-0.1-1.2-0.1-1.5V104
		c0-0.2,0-0.3,0-0.5V103c0-0.3,0-0.8,0-1.4c0-0.5-0.1-1-0.1-1.4c0-0.1,0.1-0.2,0.2-0.3c0.1-0.1,0.3-0.1,0.4-0.1l0.4,0.4v0.3
		c0,0.1,0,0.3-0.1,0.5c0,0.3-0.1,0.5-0.1,0.5c0,1,0.1,2.3,0.2,4c0.1,1.8,0.1,3.2,0.1,4.2c0,0.5-0.1,1-0.2,1.4
		c-0.1,0.2-0.2,0.4-0.3,0.6s-0.3,0.3-0.5,0.4s-0.4,0.2-0.7,0.2C193.8,112.3,193.2,112,192.8,111.4z"/>
	<path d="M199.4,112c-0.3-0.1-0.5-0.3-0.6-0.6c-0.2-0.2-0.3-0.5-0.4-0.9c-0.1-0.3-0.2-0.7-0.3-1.1c-0.1-0.6-0.2-1.5-0.3-2.5
		c0-0.2,0-0.7,0-1.3v-1c0-0.3,0-0.6,0-0.9c0-0.6,0-1.1,0.1-1.5c0-0.2,0-0.3,0-0.5c0-0.6,0.2-1.2,0.7-1.6s1.1-0.6,1.8-0.6
		c0.3,0,0.5,0.1,0.8,0.2c0.2,0.1,0.4,0.3,0.4,0.6c0,0.1,0,0.2-0.1,0.3c-0.1,0.1-0.2,0.1-0.3,0.1s-0.2,0-0.3,0s-0.2-0.1-0.2-0.1h-0.2
		l0,0c-0.4,0-0.7,0.1-1,0.3c-0.2,0.1-0.3,0.4-0.4,0.7c0,0.1-0.1,0.3-0.1,0.4c0,0.2,0,0.3,0,0.5c0,0.1,0,0.3,0,0.5v0.6v0.5
		c0,0.2,0,0.3-0.1,0.6c-0.1,0.3-0.1,0.5-0.1,0.6v0.4c0,0.4,0,1,0,1.7c0,0.6,0.1,1.2,0.2,1.8c0.1,0.6,0.3,1,0.5,1.4
		c0.3,0.4,0.6,0.6,1,0.6c0.2,0,0.4-0.1,0.7-0.3c0.3-0.2,0.5-0.3,0.6-0.3c0.2,0,0.3,0.1,0.5,0.2c0,0.4-0.1,0.7-0.4,0.9
		c-0.3,0.2-0.6,0.3-1,0.4c-0.2,0-0.4,0-0.5,0C200,112.3,199.7,112.2,199.4,112z"/>
	<path d="M203.1,111.5c0-0.3,0.2-0.4,0.5-0.4h0.2h0.1c0.1,0,0.1,0,0.2-0.1c0-0.1,0.1-0.1,0.1-0.3c0-0.9-0.1-2.1-0.2-3.7
		c-0.1-1.6-0.1-2.9-0.1-3.7c0-0.3,0-0.6,0-0.8v-0.8c0-0.4,0-0.6,0-0.9c-0.1,0-0.2,0.1-0.4,0.1s-0.4-0.1-0.4-0.4
		c0-0.1,0.1-0.2,0.2-0.3c0.2-0.1,0.4-0.2,0.6-0.2c0.4-0.1,0.8-0.1,1.1-0.1c0.1,0,0.2,0,0.3,0.1s0.1,0.2,0.1,0.3c0,0.1,0,0.2-0.1,0.3
		c-0.1,0.1-0.2,0.1-0.3,0.1s-0.1,0-0.2,0h-0.1c-0.1,0-0.2,0-0.2,0.1c0,0-0.1,0.1-0.1,0.3c0,1.1,0.1,2.7,0.2,4.7
		c0.1,2.1,0.2,3.6,0.2,4.7v0.6c0.1,0,0.2,0,0.3,0c0.4,0,0.7,0.2,0.7,0.6v0.1l-0.4,0.3c0,0,0,0-0.1,0s-0.2,0-0.3,0
		c-0.4,0-0.6,0-0.7,0C203.5,112,203.1,111.8,203.1,111.5z"/>
	<path d="M208.4,111.9c-0.1-0.2-0.1-0.3-0.1-0.6c0-0.4,0-0.8,0.1-1.3v-0.4v-0.8c0-0.4,0-1.2-0.1-2.5s-0.1-2.1-0.1-2.5
		c0,0,0-0.1,0-0.2s0-0.2,0-0.4c0-0.2,0-0.5,0-0.8c0-0.8-0.1-1.3-0.2-1.5c-0.1,0-0.2,0-0.4,0h-0.4c-0.1,0-0.3,0-0.4-0.1
		c-0.1-0.1-0.2-0.2-0.2-0.3s0.1-0.2,0.4-0.3c0.4-0.1,1-0.2,1.9-0.3c0.4,0,0.6,0,0.7,0c0.1,0,0.2,0,0.4,0.1c0.1,0.1,0.2,0.2,0.2,0.3
		s0,0.2-0.1,0.3c-0.1,0.1-0.2,0.1-0.3,0.1h-0.3c-0.1,0-0.2,0-0.3,0H209c0.1,0.7,0.1,1.4,0.1,2v1c0,0.3,0,0.7,0,1
		c0,0.5,0,1.1,0.1,1.8c0.1,0.9,0.1,1.5,0.1,1.8c0,0.4,0,0.9,0.1,1.4c0,0.6,0.1,1,0.1,1.4c0,0.5-0.2,0.8-0.5,0.8
		C208.6,112.1,208.5,112,208.4,111.9z"/>
	<path d="M214.2,111.9c-0.1-0.1-0.1-0.2-0.1-0.3v-2.1c-0.1-0.1-0.4-0.2-0.8-0.3c-0.4-0.1-0.7-0.1-1.1-0.1c-0.1,0.2-0.2,0.5-0.3,0.8
		l-0.1,0.3c0,0.1,0,0.2-0.1,0.5s-0.1,0.5-0.2,0.7s-0.1,0.3-0.2,0.4c-0.4,0-0.6-0.1-0.7-0.3c0.1-0.2,0.3-0.7,0.4-1.5l0.5-2.9
		c0.2-1.4,0.5-2.6,0.6-3.6c0.2-1,0.4-1.8,0.6-2.5c0.2-0.7,0.5-1.1,0.7-1.1s0.4,0,0.5,0.1c0,0.4,0.1,1.5,0.3,3.1s0.3,2.7,0.3,3.3
		c0,0.6,0.1,1.4,0.2,2.4c0.1,1.1,0.2,1.9,0.2,2.6c0,0.4-0.2,0.5-0.5,0.5C214.4,112,214.3,112,214.2,111.9z M214.1,108.5
		c0-0.5-0.1-1-0.2-1.7c-0.2-2.4-0.4-3.9-0.4-4.4v-0.1c-0.1,0.1-0.3,0.6-0.4,1.4c-0.2,0.9-0.4,1.8-0.5,2.8s-0.2,1.6-0.3,2
		c0.4,0.1,0.9,0.2,1.4,0.2C213.8,108.6,214,108.5,214.1,108.5z"/>
</g>
<g>
	<path d="M248.3,112c-0.1-0.1-0.2-0.2-0.2-0.4c0-0.1,0-0.2,0.1-0.4c0-0.1,0-0.3,0-0.3c0-0.9-0.1-2.8-0.2-5.5
		c-0.1-2.3-0.2-4.1-0.2-5.5c0-0.1,0-0.2,0.1-0.2c0.1-0.1,0.2-0.1,0.3-0.1s0.2,0,0.3,0.1s0.1,0.2,0.1,0.3c0,0.6,0,1.6,0.1,2.9
		c0.1,1.4,0.1,2.4,0.1,2.9v0.2v0.2v0.1v0.1c0,0.9,0,2.3,0,4.2v0.4h1.2c0.2,0.2,0.3,0.3,0.3,0.5c0,0.1,0,0.2-0.1,0.3
		c-0.1,0.1-0.2,0.1-0.3,0.1c0,0-0.1,0-0.2,0h-0.1c-0.1,0-0.2,0-0.3,0H249c-0.1,0-0.2,0-0.3,0C248.6,112,248.4,112.1,248.3,112
		C248.6,112.2,248.4,112.1,248.3,112z"/>
	<path d="M252.3,112c-0.2-0.1-0.3-0.2-0.3-0.4v-9.3c0-0.2,0-0.5-0.1-0.8s-0.1-0.6-0.1-0.8l0,0c0.2-0.3,0.3-0.5,0.4-0.6
		c0.1,0,0.3,0,0.6-0.1c0.2,0,0.4-0.1,0.6-0.1s0.3,0.1,0.5,0.2s0.2,0.2,0.2,0.4c0,0.3-0.2,0.5-0.7,0.5h-0.2c-0.1,0-0.1,0-0.2,0
		c-0.1,0-0.2,0-0.2,0c0,0.4,0,0.8,0.1,1.3v0.4v0.9c0,0.2,0,0.5,0,0.9v0.9h0.2c0.2-0.1,0.4-0.1,0.5-0.1s0.2,0,0.3,0.1
		s0.1,0.2,0.1,0.3c0,0.1,0,0.2-0.1,0.3c-0.1,0.1-0.2,0.2-0.3,0.2h-0.2h-0.2c-0.2,0-0.3,0-0.3,0.1v4.9h0.9c0.6,0,0.9,0.1,0.9,0.4v0.1
		c-0.1,0.1-0.2,0.2-0.4,0.3c-0.2,0.1-0.3,0.1-0.5,0.2h-0.5h-0.5C252.7,112.1,252.5,112.1,252.3,112z"/>
	<path d="M259,108.9c-0.7-2.6-1.4-4.9-1.9-7.1v5.2c0,0.4,0,1.2,0.1,2.3c0.1,1.2,0.1,1.9,0.1,2.3c0,0.1-0.1,0.2-0.2,0.2
		c-0.1,0.1-0.3,0.1-0.4,0.1c-0.2,0-0.3-0.1-0.3-0.3v-0.5c0-0.3,0-0.6,0-0.7c0-0.6,0-1.5-0.1-2.7s-0.1-2-0.1-2.3v-2
		c0-0.3,0-0.8,0-1.5c0-0.6,0.1-1.1,0.1-1.5v-0.1c0-0.5,0.1-0.8,0.4-0.8c0.1,0,0.3,0.2,0.5,0.7c0.4,0.8,0.8,2.1,1.3,4.1
		c0.3,1.2,0.7,2.6,1.1,4.4c0,0,0.1,0.3,0.3,1.1v0.1c0-1,0-2,0-2.8v-2.8v-4.7c0-0.3,0.2-0.4,0.5-0.4s0.4,0.2,0.4,0.6v0.1
		c-0.1,0.1-0.1,0.3-0.1,0.5c0,0.7,0,1.6,0,2.9s0,2.3,0,3v4.9c0,0.2,0,0.3-0.1,0.5s-0.2,0.2-0.3,0.2
		C260.1,112.2,259.7,111.1,259,108.9z M258.9,99.4c-0.2-0.1-0.3-0.2-0.4-0.2c-0.1-0.1-0.2-0.2-0.3-0.2c-0.1-0.1-0.2-0.1-0.4-0.1
		c-0.1,0-0.1,0.1-0.2,0.1c0,0.1,0,0.1,0,0.2l0,0c0,0.1-0.1,0.2-0.2,0.3c-0.2,0-0.3,0-0.4-0.1s-0.2-0.2-0.2-0.3
		c0-0.3,0.1-0.5,0.3-0.7c0.2-0.2,0.5-0.3,0.8-0.3c0.1,0,0.3,0.1,0.7,0.3c0.3,0.2,0.6,0.3,0.7,0.3s0.2,0,0.2-0.1
		c0.1-0.1,0.1-0.1,0.1-0.2s0.1-0.2,0.1-0.2c0.1-0.1,0.1-0.1,0.2-0.1c0.2,0,0.3,0,0.4,0.1s0.1,0.2,0.1,0.3c0,0.3-0.1,0.5-0.3,0.7
		c-0.2,0.2-0.4,0.3-0.7,0.3C259.3,99.6,259.1,99.5,258.9,99.4z"/>
	<path d="M265.8,111.9c-0.1-0.1-0.1-0.2-0.1-0.3v-2.1c-0.1-0.1-0.4-0.2-0.8-0.3c-0.4-0.1-0.7-0.1-1.1-0.1c-0.1,0.2-0.2,0.5-0.3,0.8
		l-0.1,0.3c0,0.1,0,0.2-0.1,0.5s-0.1,0.5-0.2,0.7s-0.1,0.3-0.2,0.4c-0.4,0-0.6-0.1-0.7-0.3c0.1-0.2,0.3-0.7,0.4-1.5l0.5-2.9
		c0.2-1.4,0.5-2.6,0.6-3.6c0.2-1,0.4-1.8,0.6-2.5s0.5-1.1,0.7-1.1s0.4,0,0.5,0.1c0,0.4,0.1,1.5,0.3,3.1c0.2,1.6,0.3,2.7,0.3,3.3
		c0,0.6,0.1,1.4,0.2,2.4c0.1,1.1,0.2,1.9,0.2,2.6c0,0.4-0.2,0.5-0.5,0.5C266,112,265.9,112,265.8,111.9z M265.7,108.5
		c0-0.5-0.1-1-0.2-1.7c-0.2-2.4-0.4-3.9-0.4-4.4v-0.1c-0.1,0.1-0.3,0.6-0.4,1.4s-0.4,1.8-0.5,2.8s-0.2,1.6-0.3,2
		c0.4,0.1,0.9,0.2,1.4,0.2C265.4,108.6,265.5,108.5,265.7,108.5z"/>
	<path d="M268.9,111.9c-0.2-0.1-0.2-0.2-0.2-0.4c0.2-0.2,0.4-0.9,0.4-1.9c0-0.6,0-1.5-0.1-2.7c-0.1-1.1-0.2-2-0.2-2.6v-0.9
		c0-0.3,0-0.5,0-0.9c0-0.3-0.1-0.7-0.2-1.1c-0.1-0.5-0.2-0.8-0.2-1c0-0.4,0.4-0.6,1.2-0.6h0.2c0.6,0,1.1,0.2,1.5,0.5
		c0.3,0.3,0.6,0.7,0.9,1.3c0.2,0.4,0.3,0.9,0.4,1.6c0.1,0.6,0.1,1.1,0.1,1.4v0.5v0.8v0.1c0,0.1,0,0.1,0,0.2s0,0.1,0,0.2
		c0,0.3-0.1,0.7-0.2,1.2s-0.2,1-0.4,1.4c-0.5,1.2-1,2-1.6,2.5c-0.4,0.3-0.7,0.4-1.1,0.4C269.2,112,269,112,268.9,111.9z M270.8,110
		c0.3-0.5,0.5-1,0.7-1.5c0.3-1,0.4-2.1,0.4-3.2c0-0.6-0.1-1.2-0.2-1.9c-0.1-0.7-0.4-1.3-0.8-1.8c-0.2-0.3-0.4-0.5-0.7-0.6
		c-0.3-0.1-0.6-0.2-0.9-0.2l0,0c0,1,0.1,2.4,0.2,4.4c0.1,1.9,0.2,3.4,0.2,4.4v1.5C270.1,110.9,270.5,110.5,270.8,110z"/>
	<path d="M276,112.2c-0.2-0.2-0.4-0.5-0.6-0.8c-0.3-0.6-0.5-1.4-0.7-2.4c-0.1-0.7-0.2-1.5-0.2-2.4v-0.8v-0.9c0-0.3,0-0.6,0-1
		c0-0.6,0-1.2,0.1-1.7c0-0.5,0.1-1,0.3-1.5c0.2-0.4,0.4-0.7,0.7-0.9c0.2-0.1,0.4-0.1,0.6-0.1c0.6,0,1,0.2,1.3,0.7
		c0.4,0.5,0.6,1.1,0.7,1.7c0.2,0.7,0.3,1.5,0.3,2.1c0,0.8,0.1,1.5,0.1,2.1v0.9c0,0.2,0,0.5-0.1,1c0,0.4-0.1,0.7-0.1,1v0.1
		c-0.1,0.3-0.1,0.7-0.1,1.1c0,0.3-0.1,0.6-0.2,0.9s-0.3,0.6-0.5,0.8c-0.2,0.3-0.5,0.4-0.8,0.4C276.5,112.4,276.2,112.4,276,112.2z
		 M277.3,111c0.1-0.4,0.2-0.8,0.3-1.3c0.1-0.5,0.1-1.1,0.2-1.7c0-0.3,0-0.6,0-1.1v-1.5c0-0.6-0.1-1.3-0.2-2.2
		c-0.1-0.7-0.2-1.4-0.5-2c-0.1-0.3-0.2-0.5-0.4-0.6s-0.3-0.2-0.5-0.2c-0.3,0-0.5,0.2-0.6,0.6c-0.2,0.4-0.3,0.9-0.3,1.4
		c-0.1,0.6-0.1,1.1-0.1,1.6v0.5c0,0.1,0,0.4,0,0.6v0.1c0,0.7,0.1,1.6,0.2,2.6c0.2,1.4,0.4,2.4,0.8,3c0.2,0.4,0.4,0.6,0.7,0.6
		C277,111.6,277.2,111.4,277.3,111z"/>
	<path d="M282.7,111.7L282.7,111.7c0-0.6-0.1-1.2-0.3-1.9s-0.4-1.5-0.7-2.5c-0.2-0.7-0.4-1.4-0.6-2v6.3c0,0.2,0,0.3-0.1,0.4
		s-0.2,0.1-0.3,0.1c-0.1,0-0.2,0-0.3-0.1c-0.1-0.1-0.1-0.2-0.1-0.3v-0.1v-4.7c0-1.4,0-2.9,0-4.7v-2c0-0.1,0-0.2,0.1-0.3
		s0.2-0.1,0.3-0.1c0.3,0,0.5,0.1,0.7,0.2s0.4,0.2,0.6,0.4c0.3,0.4,0.5,0.8,0.6,1.3c0,0.2,0.1,0.5,0.1,0.7s0,0.3,0,0.5s0,0.3-0.1,0.4
		c0,0.1-0.1,0.3-0.1,0.5c-0.1,0.2-0.1,0.4-0.1,0.4l-0.2,0.4L282,105c0,0.4,0.1,0.9,0.2,1.5s0.3,1.1,0.4,1.6c0.1,0.4,0.3,0.9,0.6,1.8
		l0.5,1.4l0,0c0,0.2,0,0.3,0,0.5s-0.1,0.3-0.3,0.3C283.1,112.2,282.9,112,282.7,111.7z M281.6,104l0.2-1.4c0-0.1,0-0.1,0-0.2
		c0-0.3-0.1-0.7-0.2-1.1c-0.1-0.2-0.1-0.4-0.2-0.5s-0.2-0.2-0.3-0.2v1.6c0,0.7,0,1.3,0,1.7c0,0.4,0,0.6,0,0.7
		C281.2,104.4,281.4,104.2,281.6,104z"/>
</g>
<circle class="st0" cx="190.4" cy="55.2" r="38.8"/>
<circle class="st0" cx="272.7" cy="55" r="38.8"/>
</svg>
