<?xml version="1.0" encoding="utf-8"?>
<!-- Generator: Adobe Illustrator 21.0.0, SVG Export Plug-In . SVG Version: 6.00 Build 0)  -->
<svg version="1.1" id="Capa_1" xmlns="http://www.w3.org/2000/svg" xmlns:xlink="http://www.w3.org/1999/xlink" x="0px" y="0px"
	 viewBox="0 0 300 140" style="enable-background:new 0 0 300 140;" xml:space="preserve">
<style type="text/css">
	.st0{fill:none;stroke:#FFFFFF;stroke-width:9;stroke-miterlimit:10;}
	.st1{fill:none;stroke:#FFFFFF;stroke-width:12;stroke-miterlimit:10;}
</style>
<image style="overflow:visible;enable-background:new    ;" width="177" height="177" xlink:href="narrador.png"  transform="matrix(0.4518 0 0 0.4518 4.5572 0.1117)">
</image>
<circle class="st0" cx="46.1" cy="33.6" r="48.5"/>
<g>
	<path d="M119.6,125.2c-0.4-0.1-0.7-0.2-0.9-0.3c-1.1-0.7-1.6-2.6-1.6-5.6v-0.6V118v-0.6c0-0.6,0-1.2,0-1.7s0-1.1,0.1-1.6
		c0-0.6,0.1-1.1,0.2-1.5s0.3-0.8,0.5-1.3s0.4-0.8,0.7-1.1c0.3-0.3,0.6-0.5,1.1-0.6c0.4-0.2,0.9-0.3,1.5-0.3c0.2,0,0.4,0.1,0.6,0.2
		c0.1,0.1,0.2,0.3,0.2,0.4c0,0.2-0.1,0.3-0.2,0.4s-0.2,0.2-0.4,0.2h-1.1c-0.3,0-0.6,0.2-0.8,0.6c-0.2,0.4-0.4,0.9-0.5,1.6
		c-0.2,1.2-0.3,2.1-0.3,2.9v0.1v2.3c0,0.7,0,1.5,0,2.3c0,0.6,0,1.1,0.1,1.5c0.1,0.6,0.2,1.1,0.4,1.4c0.2,0.4,0.5,0.7,1,0.9
		c0.2,0.1,0.5,0.1,0.8,0.1c0.2,0,0.4-0.1,0.5-0.2c0.2,0,0.4,0,0.5,0.1s0.2,0.2,0.2,0.4c0,0.6-0.4,0.9-1.3,0.9
		C120.3,125.3,120,125.3,119.6,125.2z"/>
	<path d="M128.1,125c-0.2-0.1-0.3-0.3-0.3-0.6c0-0.5-0.1-1.3-0.2-2.4l-0.1-0.5l-2.4-0.4c-0.1,0.4-0.2,1.1-0.4,2.2
		c-0.1,0.8-0.2,1.3-0.5,1.6c-0.1,0.1-0.3,0.2-0.5,0.2s-0.4-0.1-0.5-0.2c-0.2-0.1-0.2-0.3-0.2-0.4v-0.1v-0.1
		c1.1-4.1,1.9-8.2,2.4-12.2c0-0.1,0-0.2,0-0.3c0-0.2,0-0.4,0-0.7c0-0.6,0.1-1.1,0.2-1.4c0.1-0.4,0.1-0.6,0.3-0.8h0.8
		c0.2,0,0.4,0.1,0.6,0.2s0.2,0.3,0.2,0.4c0,1.2,0.2,3,0.5,5.4c0.3,2.5,0.5,4.2,0.5,5.2c0,0.1,0,0.3,0.1,0.7c0.1,0.4,0.1,0.6,0.1,0.7
		s0.1,0.6,0.2,1.4c0.1,0.8,0.2,1.3,0.2,1.5l0,0c0,0.4-0.1,0.6-0.4,0.7C128.5,125.2,128.2,125.2,128.1,125z M127.2,119.7
		c0-1.4-0.1-3.3-0.4-5.5l-0.2-2.5c-0.7,3.8-1.2,6.6-1.4,8.5c0.2,0.2,0.9,0.3,2.1,0.4C127.3,120.4,127.2,120.1,127.2,119.7z"/>
	<path d="M131.9,125.2c-0.2-0.8-0.3-2-0.3-3.5v-2.1c0-0.6,0-1.4,0-2.1c-0.1-0.2-0.1-0.4-0.1-0.6v-0.1c0.2-0.3,0.2-1,0.2-2.1v-1.1
		c0-0.4,0-0.7,0-1.2c0-0.9-0.1-1.7-0.2-2.2c0-0.2,0.1-0.4,0.2-0.6c0.1-0.2,0.2-0.3,0.4-0.3h1.1c0.4,0,0.8,0.1,1.2,0.3
		s0.6,0.5,0.8,0.9c0.3,0.7,0.5,1.4,0.5,2.3c0,0.6,0,1.1,0,1.5c0,0.5-0.1,0.9-0.2,1.3c0,0.2-0.1,0.4-0.2,0.5
		c-0.1,0.1-0.2,0.3-0.4,0.5c-0.2,0.3-0.6,0.5-1.1,0.8c-0.2,0.1-0.5,0.2-0.8,0.3v2.6v1.5v0.7c0.1,0.9,0.1,1.7,0.1,2.3
		c0,0.2-0.1,0.4-0.2,0.5c-0.2,0.1-0.3,0.2-0.6,0.2L131.9,125.2z M134.4,112.6c0-0.5,0-0.8-0.1-1.1c0-0.2-0.1-0.3-0.2-0.5
		s-0.2-0.2-0.4-0.3c-0.2-0.1-0.4-0.1-0.6-0.1c0,0-0.1,0-0.3,0v1.4c0,0.9,0,1.8,0,2.5c0,0.8,0,1.4,0,1.6v0.5l0,0
		C133.9,116.5,134.4,115.2,134.4,112.6z"/>
	<path d="M138.6,125.1c-0.2-0.1-0.3-0.3-0.3-0.5V124v-0.5c0-0.1,0-0.3,0-0.5c0-0.3,0-0.8-0.1-1.5V120c0-0.8,0-2,0.1-3.5
		c0.1-1.4,0.1-2.6,0.1-3.5c0-0.2,0-0.6-0.1-1c0-0.5-0.1-0.8-0.1-1c0-1.1,0.3-1.7,1-1.7c0.5,0,1.1,0.1,1.8,0.3c0.7,0.2,1,0.5,1,0.7
		s-0.1,0.3-0.2,0.4c-0.1,0.1-0.3,0.2-0.5,0.3c-0.7-0.2-1.3-0.4-1.8-0.5c0,0.2,0,0.6,0,1c0,0.6,0,1.2,0,1.7c0,0.8-0.1,1.3-0.1,1.7
		l0.1,0.4h0.4c0.1,0,0.3,0,0.5,0c0.8,0,1.2,0.2,1.2,0.7c0,0.2-0.1,0.3-0.2,0.4c-0.1,0.1-0.3,0.2-0.6,0.2s-0.5,0-0.7,0h-0.6
		c0,0.4,0,1,0,1.8s0,1.5,0,2.2c0,1-0.1,1.7-0.1,2.2c0,0.9,0,1.3,0,1.3h0.8c0.3,0,0.6,0,1,0c0.6,0,0.9,0.2,0.9,0.6
		c0,0.2-0.1,0.4-0.3,0.5s-0.4,0.2-0.7,0.2h-2C139,125.3,138.8,125.2,138.6,125.1z"/>
	<path d="M148.1,124.3c-0.3-0.8-0.6-1.7-0.7-2.6l-0.2-0.8c-0.5-2.3-0.8-3.6-0.9-3.9H146c0,0.5,0,0.9,0,1.3v1.3c0,2.1,0.2,3.8,0.5,5
		l-0.3,0.6h-0.7l-0.3-0.4v-1.6c0-1.4-0.1-3.6-0.2-6.6c-0.1-3.1-0.2-5.3-0.2-6.6c0-0.8,0.3-1.2,0.8-1.2c0.9,0,1.6,0.2,2.1,0.7
		c0.6,0.4,0.8,1.1,0.8,1.9v1.7c0,0.2,0,0.5-0.1,0.8s-0.2,0.6-0.3,0.8l-0.5,0.9l-0.4,0.7l0.1,0.6l0.3,1.7c0.2,1.2,0.4,2.2,0.6,3
		s0.5,1.5,0.8,2.1l0.1,0.3c0.2,0.3,0.2,0.6,0.2,0.8c0,0.2,0,0.3-0.1,0.4s-0.2,0.2-0.4,0.2C148.7,125.4,148.4,125,148.1,124.3z
		 M147,114.3c0.2-0.8,0.4-1.5,0.4-2.2c0-0.5-0.1-1-0.2-1.4c-0.1-0.3-0.2-0.5-0.4-0.6s-0.4-0.2-0.7-0.2v0.1v0.2v2.8
		c0,0.8,0,1.7,0,2.7C146.5,115.6,146.8,115.1,147,114.3z"/>
	<path d="M153.5,125.1c-0.3-0.2-0.6-0.4-0.7-0.7c-0.4-0.7-0.6-1.4-0.7-2.3c-0.1-0.7-0.2-1.6-0.2-2.6c0-1.7-0.1-3.8-0.1-6.3v-1.8
		c0-0.1,0-0.3,0-0.5c0-0.6,0-1,0-1.1c0.1-0.3,0.3-0.5,0.5-0.5s0.4,0.1,0.5,0.4s0.2,0.6,0.2,0.9v6.5c0,0.6,0.1,1.5,0.2,2.5
		c0.1,1.3,0.2,2.2,0.2,2.5c0,1.2,0.5,1.8,1.5,1.8c1.2,0,1.7-4.3,1.7-12.9v-1.3v-0.2c0,0,0-0.1,0-0.2c0-0.2,0-0.3,0.1-0.4
		s0.3-0.1,0.5-0.1s0.4,0.1,0.5,0.2s0.2,0.3,0.2,0.4s0,0.3,0,0.6c0,0.3,0,0.7-0.1,1.2s-0.1,0.9-0.1,1.2c0,0.4,0,0.7,0,1v1v0.2
		c0,0.1,0,0.1,0,0.2c0,7.1-1,10.7-3.1,10.7C154.2,125.4,153.8,125.3,153.5,125.1z"/>
	<path d="M162.7,125.2c-0.4-0.1-0.7-0.2-0.9-0.3c-1.1-0.7-1.6-2.6-1.6-5.6v-0.6V118v-0.6c0-0.6,0-1.2,0-1.7s0-1.1,0.1-1.6
		c0-0.6,0.1-1.1,0.2-1.5c0.1-0.4,0.3-0.8,0.5-1.3s0.4-0.8,0.7-1.1c0.3-0.3,0.6-0.5,1.1-0.6c0.4-0.2,0.9-0.3,1.5-0.3
		c0.2,0,0.4,0.1,0.6,0.2c0.1,0.1,0.2,0.3,0.2,0.4c0,0.2-0.1,0.3-0.2,0.4c-0.1,0.1-0.2,0.2-0.4,0.2h-1.1c-0.3,0-0.6,0.2-0.8,0.6
		s-0.4,0.9-0.5,1.6c-0.2,1.2-0.3,2.1-0.3,2.9v0.1v2.3c0,0.7,0,1.5,0,2.3c0,0.6,0,1.1,0.1,1.5c0.1,0.6,0.2,1.1,0.4,1.4
		c0.2,0.4,0.5,0.7,1,0.9c0.2,0.1,0.5,0.1,0.8,0.1c0.2,0,0.4-0.1,0.5-0.2c0.2,0,0.4,0,0.5,0.1s0.2,0.2,0.2,0.4c0,0.6-0.4,0.9-1.3,0.9
		C163.5,125.3,163.1,125.3,162.7,125.2z"/>
	<path d="M166.4,124.3c0-0.4,0.2-0.6,0.7-0.6h0.3h0.2c0.1,0,0.2,0,0.3-0.1c0-0.1,0.1-0.2,0.1-0.4c0-0.3,0-0.7,0-1.3
		c0-0.4-0.1-1.1-0.2-2.1c-0.1-2.4-0.2-4.3-0.2-5.5c0-0.4,0-0.9,0-1.2v-1.2c0-0.5,0-1-0.1-1.3c-0.3,0.1-0.4,0.1-0.6,0.1
		c-0.4,0-0.6-0.2-0.6-0.6c0-0.2,0.1-0.4,0.4-0.5c0.2-0.1,0.5-0.2,0.9-0.3c0.6-0.1,1.2-0.2,1.7-0.2c0.2,0,0.4,0.1,0.5,0.2
		s0.2,0.3,0.2,0.5s-0.1,0.3-0.2,0.5c-0.1,0.1-0.2,0.2-0.4,0.2c-0.1,0-0.2,0-0.2,0H169c-0.2,0-0.3,0-0.3,0.1s-0.1,0.2-0.1,0.4
		c0,1.6,0.1,3.9,0.3,7c0,0.6,0.1,1.4,0.2,2.5c0.1,0.7,0.1,1.5,0.1,2.3v0.9c0.1,0,0.3,0,0.5,0c0.7,0,1,0.3,1,0.8v0.1l-0.6,0.4
		c0,0-0.1,0-0.2,0c-0.1,0-0.3,0-0.5,0c-0.5,0-0.8,0-1,0C167.1,125,166.4,124.7,166.4,124.3z"/>
	<path d="M174.1,124.6v-0.9c0-0.3,0-0.6,0-0.9V122c0-0.2-0.2-1.9-0.4-5.3c-0.2-3.3-0.3-5.5-0.3-6.4c-0.9,0-1.5-0.1-1.8-0.3
		c-0.2-0.1-0.3-0.3-0.3-0.4s0.1-0.2,0.3-0.3c0.2-0.1,0.3-0.2,0.5-0.2c0.4,0,1,0,1.6,0.1s1.2,0.1,1.6,0.1h0.2h0.2
		c0.5,0,0.7,0.2,0.7,0.6c0,0.2-0.1,0.3-0.2,0.5c-0.2,0.1-0.3,0.2-0.6,0.2c-0.1,0-0.4,0-0.6-0.1l-0.5-0.1v0.1v0.1
		c0,1.4,0.1,3.7,0.4,6.8c0.3,2.9,0.4,5.2,0.4,6.8c0,0.2-0.1,0.4-0.3,0.5s-0.4,0.2-0.6,0.2L174.1,124.6z"/>
	<path d="M182.8,125c-0.2-0.1-0.3-0.3-0.3-0.6c0-0.5-0.1-1.3-0.2-2.4l-0.1-0.5l-2.4-0.4c-0.1,0.4-0.2,1.1-0.4,2.2
		c-0.1,0.8-0.2,1.3-0.5,1.6c-0.1,0.1-0.3,0.2-0.5,0.2s-0.4-0.1-0.5-0.2c-0.2-0.1-0.2-0.3-0.2-0.4v-0.1v-0.1
		c1.1-4.1,1.9-8.2,2.4-12.2c0-0.1,0-0.2,0-0.3c0-0.2,0-0.4,0-0.7c0-0.6,0.1-1.1,0.2-1.4c0.1-0.4,0.1-0.6,0.3-0.8h0.8
		c0.2,0,0.4,0.1,0.6,0.2c0.2,0.1,0.2,0.3,0.2,0.4c0,1.2,0.2,3,0.5,5.4c0.3,2.5,0.5,4.2,0.5,5.2c0,0.1,0,0.3,0.1,0.7
		c0.1,0.4,0.1,0.6,0.1,0.7s0.1,0.6,0.2,1.4c0.1,0.8,0.2,1.3,0.2,1.5l0,0c0,0.4-0.1,0.6-0.4,0.7C183.3,125.2,183,125.2,182.8,125z
		 M182,119.7c0-1.4-0.1-3.3-0.4-5.5l-0.2-2.5c-0.7,3.8-1.2,6.6-1.4,8.5c0.2,0.2,0.9,0.3,2.1,0.4C182,120.4,182,120.1,182,119.7z"/>
</g>
<g>
	<path d="M20.6,97.9c-0.1-0.1-0.2-0.3-0.2-0.5l-0.1-0.5l0,0v-0.1c0-0.5-0.5-2.3-1.6-5.4s-2-5.3-2.6-6.8v12.1l0.1,0.2
		c0,0,0,0.1,0.1,0.2c0,0.1,0.1,0.2,0.1,0.2c0,0.2-0.1,0.4-0.2,0.5S15.9,98,15.7,98c-0.5,0-0.8-0.5-0.8-1.5v-4.1c0-1.2,0-2.6,0-4.1
		c0-0.5,0-1.3,0.1-2.2c0-1,0.1-1.8,0.1-2.2c0-0.8,0.3-1.3,0.9-1.8v0.1c0.1,0,0.2,0,0.2,0c0.4,0,0.8,0.6,1.4,1.9
		c0.4,1,0.9,2.1,1.2,3.2c0.4,1.1,0.8,2.8,1.4,4.8l0.2,0.9c0.4,1.3,0.6,2.2,0.8,2.8c0.3-3.4,0.5-7.5,0.5-12.2v-0.3c0-0.1,0-0.2,0-0.3
		c0-0.5,0.2-0.7,0.6-0.7c0.2,0,0.4,0.1,0.5,0.3c0.1,0.2,0.2,0.4,0.2,0.7V85c0,2.5-0.1,5.1-0.3,8c-0.2,2.9-0.4,4.5-0.6,4.9
		c-0.5,0.1-0.8,0.2-0.9,0.2C20.8,98.1,20.7,98,20.6,97.9z"/>
	<path d="M29.9,98c-0.2-0.1-0.3-0.3-0.3-0.6c0-0.5-0.1-1.3-0.2-2.4l-0.1-0.5l-2.4-0.4c-0.1,0.4-0.2,1.1-0.4,2.2
		c-0.1,0.8-0.2,1.3-0.5,1.6c-0.1,0.1-0.3,0.2-0.5,0.2S25.1,98,25,97.9c-0.2-0.1-0.2-0.3-0.2-0.4v-0.1v-0.1c1.1-4.1,1.9-8.2,2.4-12.2
		c0-0.1,0-0.2,0-0.3c0-0.2,0-0.4,0-0.7c0-0.6,0.1-1.1,0.2-1.4c0.1-0.4,0.1-0.6,0.3-0.8h0.8c0.2,0,0.4,0.1,0.6,0.2s0.2,0.3,0.2,0.4
		c0,1.2,0.2,3,0.5,5.4c0.3,2.5,0.5,4.2,0.5,5.2c0,0.1,0,0.3,0.1,0.7c0.1,0.4,0.1,0.6,0.1,0.7s0.1,0.6,0.2,1.4s0.2,1.3,0.2,1.5l0,0
		c0,0.4-0.1,0.6-0.4,0.7C30.3,98.2,30,98.2,29.9,98z M29,92.7c0-1.4-0.1-3.3-0.4-5.5l-0.2-2.5c-0.7,3.8-1.2,6.6-1.4,8.5
		c0.2,0.2,0.9,0.3,2.1,0.4C29.1,93.4,29,93.1,29,92.7z"/>
	<path d="M36.4,97.3c-0.3-0.8-0.6-1.7-0.7-2.6l-0.2-0.8c-0.5-2.3-0.8-3.6-0.9-3.9h-0.3c0,0.5,0,0.9,0,1.3v1.3c0,2.1,0.2,3.8,0.5,5
		l-0.3,0.6h-0.7l-0.3-0.4v-1.6c0-1.4-0.1-3.6-0.2-6.6c-0.1-3.1-0.2-5.3-0.2-6.6c0-0.8,0.3-1.2,0.8-1.2c0.9,0,1.6,0.2,2.1,0.7
		c0.6,0.4,0.8,1.1,0.8,1.9v1.7c0,0.2,0,0.5-0.1,0.8s-0.2,0.6-0.3,0.8l-0.4,1l-0.4,0.7l0.1,0.6l0.3,1.7c0.2,1.2,0.4,2.2,0.6,3
		c0.2,0.8,0.5,1.5,0.8,2.1l0.1,0.3c0.2,0.3,0.2,0.6,0.2,0.8c0,0.2,0,0.3-0.1,0.4s-0.2,0.2-0.4,0.2C37,98.4,36.7,98,36.4,97.3z
		 M35.3,87.3c0.2-0.8,0.4-1.5,0.4-2.2c0-0.5-0.1-1-0.2-1.4c-0.1-0.3-0.2-0.5-0.4-0.6s-0.4-0.2-0.7-0.2V83v0.2V86c0,0.8,0,1.7,0,2.7
		C34.7,88.6,35,88.1,35.3,87.3z"/>
	<path d="M43.5,97.3c-0.3-0.8-0.6-1.7-0.7-2.6l-0.2-0.8c-0.5-2.3-0.8-3.6-0.9-3.9h-0.3c0,0.5,0,0.9,0,1.3v1.3c0,2.1,0.2,3.8,0.5,5
		l-0.3,0.6h-0.7l-0.3-0.4v-1.6c0-1.4-0.1-3.6-0.2-6.6c-0.1-3.1-0.2-5.3-0.2-6.6c0-0.8,0.3-1.2,0.8-1.2c0.9,0,1.6,0.2,2.1,0.7
		c0.6,0.4,0.8,1.1,0.8,1.9v1.7c0,0.2,0,0.5-0.1,0.8s-0.2,0.6-0.3,0.8L43,88.6l-0.4,0.7l0.1,0.6l0.3,1.7c0.2,1.2,0.4,2.2,0.6,3
		c0.2,0.8,0.5,1.5,0.8,2.1l0.1,0.3c0.2,0.3,0.2,0.6,0.2,0.8c0,0.2,0,0.3-0.1,0.4s-0.2,0.2-0.4,0.2C44.1,98.4,43.7,98,43.5,97.3z
		 M42.4,87.3c0.2-0.8,0.4-1.5,0.4-2.2c0-0.5-0.1-1-0.2-1.4c-0.1-0.3-0.2-0.5-0.4-0.6s-0.4-0.2-0.7-0.2V83v0.2V86c0,0.8,0,1.7,0,2.7
		C41.8,88.6,42.1,88.1,42.4,87.3z"/>
	<path d="M51.2,98c-0.2-0.1-0.3-0.3-0.3-0.6c0-0.5-0.1-1.3-0.2-2.4l-0.1-0.5l-2.4-0.4c-0.1,0.4-0.2,1.1-0.4,2.2
		c-0.1,0.8-0.2,1.3-0.5,1.6c-0.1,0.1-0.3,0.2-0.5,0.2s-0.4-0.1-0.5-0.2c-0.2-0.1-0.2-0.3-0.2-0.4v-0.1v-0.1
		c1.1-4.1,1.9-8.2,2.4-12.2c0-0.1,0-0.2,0-0.3c0-0.2,0-0.4,0-0.7c0-0.6,0.1-1.1,0.2-1.4c0.1-0.4,0.1-0.6,0.3-0.8h0.8
		c0.2,0,0.4,0.1,0.6,0.2c0.2,0.1,0.2,0.3,0.2,0.4c0,1.2,0.2,3,0.5,5.4c0.3,2.5,0.5,4.2,0.5,5.2c0,0.1,0,0.3,0.1,0.7
		c0.1,0.4,0.1,0.6,0.1,0.7s0.1,0.6,0.2,1.4c0.1,0.8,0.2,1.3,0.2,1.5l0,0c0,0.4-0.1,0.6-0.4,0.7C51.7,98.2,51.4,98.2,51.2,98z
		 M50.4,92.7c0-1.4-0.1-3.3-0.4-5.5l-0.2-2.5c-0.7,3.8-1.2,6.6-1.4,8.5c0.2,0.2,0.9,0.3,2.1,0.4C50.4,93.4,50.4,93.1,50.4,92.7z"/>
	<path d="M54.6,95v-3.8c0-1.1,0-2.4,0-3.8c0-0.5,0-1.3-0.1-2.4c-0.1-1.2-0.1-1.9-0.1-2.1s0.1-0.4,0.3-0.6s0.4-0.2,0.6-0.2
		c0.6,0,1.1,0.1,1.6,0.4c0.5,0.2,1,0.6,1.4,1c0.8,1,1.4,2,1.7,3.2c0.1,0.6,0.2,1.2,0.2,1.8c0,0.2,0,0.4,0,0.6v0.6V91
		c0,1,0,1.8-0.1,2.4c-0.1,0.8-0.3,1.5-0.6,2.1c-0.3,0.7-0.8,1.3-1.4,1.8c-0.3,0.2-0.7,0.5-1.1,0.7h-1.7C54.8,98.1,54.6,97.1,54.6,95
		z M57.2,96.7c0.3-0.2,0.5-0.4,0.7-0.7c0.2-0.3,0.3-0.6,0.4-1c0.1-0.4,0.2-0.8,0.3-1.1c0.1-0.7,0.2-1.5,0.3-2.2c0-0.2,0-0.5,0-0.8
		c0-4.8-0.9-7.4-2.8-7.6c-0.1,0.7-0.2,1.6-0.2,2.5c0,1,0.1,2.8,0.2,5.3c0.1,2.2,0.2,4,0.2,5.3V97C56.6,96.9,56.9,96.8,57.2,96.7z"/>
	<path d="M64.4,98.1c-0.4-0.3-0.6-0.6-0.9-1.1c-0.5-1-0.8-2-0.9-3.2c-0.1-1.1-0.2-2.1-0.2-3.1c0-0.2,0-0.4,0-0.5v-0.4
		c0-0.1,0-0.1,0-0.1v-0.4v-1.7c0-0.5,0.1-1.3,0.2-2.4c0.1-0.8,0.3-1.5,0.6-2.2c0.1-0.3,0.3-0.6,0.4-0.7c0.2-0.2,0.4-0.3,0.6-0.3
		c0.6,0,1.2,0.1,1.7,0.3c0.5,0.2,0.9,0.6,1.3,1c0.3,0.4,0.6,0.9,0.8,1.5s0.4,1.2,0.5,1.9c0.1,0.7,0.1,1.4,0.1,2.1V89
		c0,0.5,0,0.9,0,1.3v1.4c0,4.6-1.1,6.9-3.2,6.9C65.2,98.5,64.8,98.3,64.4,98.1z M66.3,97.1c0.2-0.2,0.4-0.5,0.6-0.9
		c0.3-0.8,0.5-1.7,0.6-2.6c0.1-0.8,0.1-1.5,0.1-2.1c0-0.7-0.1-1.7-0.2-2.8c-0.1-1.2-0.1-2.2-0.1-2.8v-0.4c0-0.6-0.2-1.1-0.6-1.6
		c-0.4-0.4-0.8-0.7-1.4-0.7c-0.5,0-0.9,0.3-1.1,0.9C64,84.6,64,85.2,64,86c0,0.3,0,0.6,0,0.8v0.6v1.1c0,0.3,0,0.7,0,1.1
		c0,0.9,0,1.7,0.1,2.6c0.1,1.2,0.2,2.4,0.5,3.5c0.3,1.2,0.6,1.8,1.1,1.8C65.8,97.4,66,97.3,66.3,97.1z"/>
	<path d="M74.7,97.3c-0.3-0.8-0.6-1.7-0.7-2.6l-0.2-0.8c-0.5-2.3-0.8-3.6-0.9-3.9h-0.3c0,0.5,0,0.9,0,1.3v1.3c0,2.1,0.2,3.8,0.5,5
		l-0.3,0.6h-0.7l-0.3-0.4v-1.6c0-1.4-0.1-3.6-0.2-6.6c-0.1-3.1-0.2-5.3-0.2-6.6c0-0.8,0.3-1.2,0.8-1.2c0.9,0,1.6,0.2,2.1,0.7
		c0.6,0.4,0.8,1.1,0.8,1.9v1.7c0,0.2,0,0.5-0.1,0.8s-0.2,0.6-0.3,0.8l-0.5,0.9l-0.4,0.7L74,90l0.3,1.7c0.2,1.2,0.4,2.2,0.6,3
		s0.5,1.5,0.8,2.1l0.1,0.3c0.2,0.3,0.2,0.6,0.2,0.8c0,0.2,0,0.3-0.1,0.4s-0.2,0.2-0.4,0.2C75.3,98.4,74.9,98,74.7,97.3z M73.6,87.3
		c0.2-0.8,0.4-1.5,0.4-2.2c0-0.5-0.1-1-0.2-1.4c-0.1-0.3-0.2-0.5-0.4-0.6c-0.2-0.1-0.4-0.2-0.7-0.2V83v0.2V86c0,0.8,0,1.7,0,2.7
		C73,88.6,73.3,88.1,73.6,87.3z"/>
</g>
<image style="overflow:visible;enable-background:new    ;" width="177" height="177" xlink:href="caperucita.png"  transform="matrix(0.4574 0 0 0.4574 110.321 13.1199)">
</image>
<circle class="st0" cx="151.1" cy="49.9" r="49.1"/>
<image style="overflow:visible;enable-background:new    ;" width="177" height="177" xlink:href="loboabu.png"  transform="matrix(0.4302 0 0 0.4302 218.725 -1.6719)">
</image>
<circle class="st1" cx="262.6" cy="42.6" r="48.4"/>
<g>
	<path d="M242,103.1c-0.3,0.2-0.5,0.2-0.8,0.2c-0.2,0-0.4-0.1-0.5-0.3s-0.2-0.3-0.2-0.5c0-1.3,0.1-3.1,0.2-5.4
		c0.1-2.4,0.1-4.2,0.1-5.4v-0.2c-0.1-1-0.1-1.8-0.1-2.3c0-1.5,0.3-2.3,0.8-2.3c0.2,0,0.3,0.1,0.4,0.2c0.1,0.1,0.2,0.3,0.2,0.4
		c0,0.2,0,0.5-0.1,0.9c0,0.4-0.1,0.7-0.1,0.9c0,1.1,0,2,0,2.9c0,0.8,0,1.8,0,2.9c-0.1,0.2-0.1,0.6-0.1,1v0.3v1.9c0,0.6,0,1.2,0,1.9
		c0,1.1,0.3,1.7,0.8,1.7c0,0,0.1,0,0.2,0s0.2,0,0.3,0s0.3,0,0.6,0c0.9,0,1.3,0.2,1.3,0.7c0,0.2-0.1,0.3-0.2,0.4
		c-0.1,0.1-0.3,0.2-0.5,0.2C243.6,103.2,242.9,103.1,242,103.1z"/>
	<path d="M248.6,103.1c-0.4-0.3-0.6-0.6-0.9-1.1c-0.5-1-0.8-2-0.9-3.2c-0.1-1.1-0.2-2.1-0.2-3.1c0-0.2,0-0.4,0-0.5v-0.4
		c0-0.1,0-0.1,0-0.1v-0.4v-1.7c0-0.5,0.1-1.3,0.2-2.4c0.1-0.8,0.3-1.5,0.6-2.2c0.1-0.3,0.3-0.6,0.4-0.7s0.4-0.3,0.6-0.3
		c0.6,0,1.2,0.1,1.7,0.3c0.5,0.2,0.9,0.6,1.3,1c0.3,0.4,0.6,0.9,0.8,1.5s0.4,1.2,0.5,1.9c0.1,0.7,0.1,1.4,0.1,2.1V94
		c0,0.5,0,0.9,0,1.3v1.4c0,4.6-1.1,6.9-3.2,6.9C249.3,103.5,248.9,103.3,248.6,103.1z M250.4,102.1c0.2-0.2,0.4-0.5,0.6-0.9
		c0.3-0.8,0.5-1.7,0.6-2.6c0.1-0.8,0.1-1.5,0.1-2.1c0-0.7-0.1-1.7-0.2-2.8c-0.1-1.2-0.1-2.2-0.1-2.8v-0.4c0-0.6-0.2-1.1-0.6-1.6
		c-0.4-0.4-0.8-0.7-1.4-0.7s-0.9,0.3-1.1,0.9c-0.2,0.5-0.2,1.1-0.2,1.9c0,0.3,0,0.6,0,0.8v0.6v1.1c0,0.3,0,0.7,0,1.1
		c0,0.9,0,1.7,0.1,2.6c0.1,1.2,0.2,2.4,0.5,3.5c0.3,1.2,0.6,1.8,1.1,1.8C249.9,102.4,250.2,102.3,250.4,102.1z"/>
	<path d="M255.6,102.8c-0.1-0.2-0.1-0.5-0.1-0.8c0-0.7,0-1.5,0.1-2.5s0.1-1.8,0.1-2.6c0-0.8,0-2.1,0.1-3.8v-3.8c0-0.1,0-0.4-0.1-0.6
		l-0.1-0.6V88c0-0.4,0.1-0.6,0.2-0.8c0.1-0.2,0.3-0.3,0.6-0.3c0.4,0,0.9,0.1,1.4,0.4s0.9,0.5,1.1,0.9c0.5,0.8,0.7,1.7,0.7,2.9
		c0,0.9-0.1,1.6-0.2,2.2s-0.4,1.1-0.7,1.6c0.4,0.4,0.7,0.9,0.9,1.6c0.2,0.6,0.2,1.5,0.2,2.4c0,1-0.2,1.8-0.5,2.5
		c-0.4,0.8-0.9,1.4-1.7,1.7c-0.4,0.2-0.9,0.2-1.3,0.2C255.9,103.2,255.7,103.1,255.6,102.8z M258.1,101.1c0.3-0.5,0.4-1.1,0.4-1.7
		c0-0.7,0-1.3-0.1-1.8c-0.1-0.4-0.1-0.7-0.3-1c-0.1-0.3-0.2-0.5-0.4-0.7c-0.2-0.2-0.4-0.4-0.7-0.4c-0.1,0.9-0.1,2.1-0.1,3.6
		c0,0.1,0,0.4,0,0.9v0.8v0.1l0,0v1.1C257.4,101.9,257.8,101.6,258.1,101.1z M258.2,91.1c0-2.1-0.3-3.1-1-3.2
		c-0.2,0.4-0.3,1.2-0.3,2.6V94C257.8,94,258.2,93.1,258.2,91.1z"/>
	<path d="M264,103.1c-0.4-0.3-0.6-0.6-0.9-1.1c-0.5-1-0.8-2-0.9-3.2c-0.1-1.1-0.2-2.1-0.2-3.1c0-0.2,0-0.4,0-0.5v-0.4
		c0-0.1,0-0.1,0-0.1v-0.4v-1.7c0-0.5,0.1-1.3,0.2-2.4c0.1-0.8,0.3-1.5,0.6-2.2c0.1-0.3,0.3-0.6,0.4-0.7s0.4-0.3,0.6-0.3
		c0.6,0,1.2,0.1,1.7,0.3c0.5,0.2,0.9,0.6,1.3,1c0.3,0.4,0.6,0.9,0.8,1.5c0.2,0.6,0.4,1.2,0.5,1.9c0.1,0.7,0.1,1.4,0.1,2.1V94
		c0,0.5,0,0.9,0,1.3v1.4c0,4.6-1.1,6.9-3.2,6.9C264.8,103.5,264.4,103.3,264,103.1z M265.9,102.1c0.2-0.2,0.4-0.5,0.6-0.9
		c0.3-0.8,0.5-1.7,0.6-2.6c0.1-0.8,0.1-1.5,0.1-2.1c0-0.7-0.1-1.7-0.2-2.8c-0.1-1.2-0.1-2.2-0.1-2.8v-0.4c0-0.6-0.2-1.1-0.6-1.6
		c-0.4-0.4-0.8-0.7-1.4-0.7s-0.9,0.3-1.1,0.9c-0.2,0.5-0.2,1.1-0.2,1.9c0,0.3,0,0.6,0,0.8v0.6v1.1c0,0.3,0,0.7,0,1.1
		c0,0.9,0,1.7,0.1,2.6c0.1,1.2,0.2,2.4,0.5,3.5c0.3,1.2,0.6,1.8,1.1,1.8C265.4,102.4,265.6,102.3,265.9,102.1z"/>
</g>
</svg>
