<?xml version="1.0" encoding="utf-8"?>
<!-- Generator: Adobe Illustrator 21.0.0, SVG Export Plug-In . SVG Version: 6.00 Build 0)  -->
<svg version="1.1" id="Capa_1" xmlns="http://www.w3.org/2000/svg" xmlns:xlink="http://www.w3.org/1999/xlink" x="0px" y="0px"
	 viewBox="0 0 300 140" style="enable-background:new 0 0 300 140;" xml:space="preserve">
<style type="text/css">
	.st0{fill:none;stroke:#FFFFFF;stroke-width:9;stroke-miterlimit:10;}
</style>
<g>
	<path d="M13.4,112.5c-0.7-2.7-1.4-5.1-2-7.4v5.4c0,0.4,0,1.2,0.1,2.4c0.1,1.2,0.1,2,0.1,2.4c0,0.1-0.1,0.2-0.2,0.2
		c-0.1,0.1-0.3,0.1-0.4,0.1c-0.2,0-0.3-0.1-0.3-0.3v-0.5c0-0.3,0-0.6,0-0.7c0-0.6,0-1.6-0.1-2.8s-0.1-2.1-0.1-2.4v-2.1
		c0-0.3,0-0.8,0-1.6c0-0.6,0.1-1.1,0.1-1.6v-0.1c0-0.5,0.1-0.8,0.4-0.8c0.1,0,0.3,0.2,0.5,0.7c0.4,0.8,0.8,2.2,1.3,4.2
		c0.3,1.2,0.7,2.7,1.1,4.6c0,0,0.1,0.3,0.3,1.1v0.1c0-1,0-2.1,0-2.9v-2.9v-4.9c0-0.3,0.2-0.4,0.5-0.4c0.3,0,0.4,0.2,0.4,0.6v0.1
		c-0.1,0.1-0.1,0.3-0.1,0.5c0,0.7,0,1.7,0,3c0,1.3,0,2.4,0,3.1v5.1c0,0.2,0,0.3-0.1,0.5c-0.1,0.2-0.2,0.2-0.3,0.2
		C14.5,115.9,14.1,114.8,13.4,112.5z"/>
	<path d="M20.3,115.6c-0.1-0.1-0.1-0.2-0.1-0.3v-2.2c-0.1-0.1-0.4-0.2-0.8-0.3c-0.4-0.1-0.7-0.1-1.1-0.1c-0.1,0.2-0.2,0.5-0.3,0.8
		l-0.1,0.3c0,0.1,0,0.2-0.1,0.5c-0.1,0.3-0.1,0.5-0.2,0.7c-0.1,0.2-0.1,0.3-0.2,0.4c-0.4,0-0.6-0.1-0.7-0.3c0.1-0.2,0.3-0.7,0.4-1.6
		l0.5-3c0.2-1.4,0.5-2.7,0.6-3.7c0.2-1,0.4-1.9,0.6-2.6c0.2-0.7,0.5-1.1,0.7-1.1c0.2,0,0.4,0,0.5,0.1c0,0.4,0.1,1.6,0.3,3.2
		c0.2,1.7,0.3,2.8,0.3,3.4s0.1,1.4,0.2,2.5c0.1,1.1,0.2,2,0.2,2.7c0,0.4-0.2,0.5-0.5,0.5C20.5,115.7,20.4,115.7,20.3,115.6z
		 M20.2,112.1c0-0.5-0.1-1-0.2-1.8c-0.2-2.5-0.4-4-0.4-4.6v-0.1c-0.1,0.1-0.3,0.6-0.4,1.4c-0.1,0.8-0.4,1.9-0.5,2.9
		c-0.1,1-0.2,1.7-0.3,2.1c0.4,0.1,0.9,0.2,1.4,0.2C20,112.2,20.1,112.1,20.2,112.1z"/>
	<path d="M25.7,115.4L25.7,115.4c0-0.6-0.1-1.2-0.3-2c-0.2-0.7-0.4-1.6-0.7-2.6c-0.2-0.7-0.4-1.4-0.6-2.1v6.5c0,0.2,0,0.3-0.1,0.4
		c-0.1,0.1-0.2,0.1-0.3,0.1c-0.1,0-0.2,0-0.3-0.1c-0.1-0.1-0.1-0.2-0.1-0.3v-0.1v-4.9c0-1.4,0-3,0-4.9v-2.1c0-0.1,0-0.2,0.1-0.3
		c0.1,0,0.2-0.1,0.3-0.1c0.3,0,0.5,0.1,0.7,0.2c0.2,0.1,0.4,0.2,0.6,0.4c0.3,0.4,0.5,0.8,0.6,1.3c0,0.2,0.1,0.5,0.1,0.7
		c0,0.2,0,0.3,0,0.5c0,0.2,0,0.3-0.1,0.4c0,0.1-0.1,0.3-0.1,0.5c-0.1,0.2-0.1,0.4-0.1,0.4l-0.2,0.4l-0.2,0.4c0,0.4,0.1,0.9,0.2,1.6
		c0.1,0.6,0.3,1.1,0.4,1.7c0.1,0.4,0.3,0.9,0.6,1.9l0.5,1.4l0,0c0,0.2,0,0.3,0,0.5s-0.1,0.3-0.3,0.3
		C26.1,115.9,25.9,115.7,25.7,115.4z M24.6,107.4l0.2-1.4c0-0.1,0-0.1,0-0.2c0-0.3-0.1-0.7-0.2-1.1c-0.1-0.2-0.1-0.4-0.2-0.5
		c-0.1-0.1-0.2-0.2-0.3-0.2v1.7c0,0.7,0,1.3,0,1.8c0,0.4,0,0.6,0,0.7C24.2,107.8,24.4,107.6,24.6,107.4z"/>
	<path d="M30.5,115.4L30.5,115.4c0-0.6-0.1-1.2-0.3-2c-0.2-0.7-0.4-1.6-0.7-2.6c-0.2-0.7-0.4-1.4-0.6-2.1v6.5c0,0.2,0,0.3-0.1,0.4
		c-0.1,0.1-0.2,0.1-0.3,0.1s-0.2,0-0.3-0.1c-0.1-0.1-0.1-0.2-0.1-0.3v-0.1v-4.9c0-1.4,0-3,0-4.9v-2.1c0-0.1,0-0.2,0.1-0.3
		c0.1,0,0.2-0.1,0.3-0.1c0.3,0,0.5,0.1,0.7,0.2c0.2,0.1,0.4,0.2,0.6,0.4c0.3,0.4,0.5,0.8,0.6,1.3c0,0.2,0.1,0.5,0.1,0.7
		c0,0.2,0,0.3,0,0.5c0,0.2,0,0.3-0.1,0.4c0,0.1-0.1,0.3-0.1,0.5c-0.1,0.2-0.1,0.4-0.1,0.4l-0.2,0.4l-0.2,0.4c0,0.4,0.1,0.9,0.2,1.6
		c0.1,0.6,0.3,1.1,0.4,1.7c0.1,0.4,0.3,0.9,0.6,1.9l0.5,1.4l0,0c0,0.2,0,0.3,0,0.5s-0.1,0.3-0.3,0.3
		C30.9,115.9,30.7,115.7,30.5,115.4z M29.4,107.4l0.2-1.4c0-0.1,0-0.1,0-0.2c0-0.3-0.1-0.7-0.2-1.1c-0.1-0.2-0.1-0.4-0.2-0.5
		c-0.1-0.1-0.2-0.2-0.3-0.2v1.7c0,0.7,0,1.3,0,1.8c0,0.4,0,0.6,0,0.7C29,107.8,29.2,107.6,29.4,107.4z"/>
	<path d="M35.7,115.6c-0.1-0.1-0.1-0.2-0.1-0.3v-2.2c-0.1-0.1-0.4-0.2-0.8-0.3c-0.4-0.1-0.7-0.1-1.1-0.1c-0.1,0.2-0.2,0.5-0.3,0.8
		l-0.1,0.3c0,0.1,0,0.2-0.1,0.5c-0.1,0.3-0.1,0.5-0.2,0.7c-0.1,0.2-0.1,0.3-0.2,0.4c-0.4,0-0.6-0.1-0.7-0.3c0.1-0.2,0.3-0.7,0.4-1.6
		l0.5-3c0.2-1.4,0.5-2.7,0.6-3.7c0.2-1,0.4-1.9,0.6-2.6c0.2-0.7,0.5-1.1,0.7-1.1s0.4,0,0.5,0.1c0,0.4,0.1,1.6,0.3,3.2
		c0.2,1.7,0.3,2.8,0.3,3.4s0.1,1.4,0.2,2.5c0.1,1.1,0.2,2,0.2,2.7c0,0.4-0.2,0.5-0.5,0.5C36,115.7,35.8,115.7,35.7,115.6z
		 M35.6,112.1c0-0.5-0.1-1-0.2-1.8c-0.2-2.5-0.4-4-0.4-4.6v-0.1c-0.1,0.1-0.3,0.6-0.4,1.4c-0.1,0.8-0.4,1.9-0.5,2.9
		c-0.1,1-0.2,1.7-0.3,2.1c0.4,0.1,0.9,0.2,1.4,0.2C35.3,112.2,35.4,112.1,35.6,112.1z"/>
	<path d="M39,115.6c-0.2-0.1-0.2-0.2-0.2-0.4c0.2-0.2,0.4-0.9,0.4-2c0-0.6,0-1.6-0.1-2.8c-0.1-1.1-0.2-2.1-0.2-2.7v-0.9
		c0-0.3,0-0.5,0-0.9c0-0.3-0.1-0.7-0.2-1.1c-0.1-0.5-0.2-0.8-0.2-1c0-0.4,0.4-0.6,1.2-0.6h0.2c0.6,0,1.1,0.2,1.6,0.5
		c0.3,0.3,0.6,0.7,0.9,1.3c0.2,0.4,0.3,0.9,0.4,1.7c0.1,0.6,0.1,1.1,0.1,1.4v0.5v0.8v0.1c0,0.1,0,0.1,0,0.2c0,0.1,0,0.1,0,0.2
		c0,0.3-0.1,0.7-0.2,1.2c-0.1,0.5-0.2,1-0.4,1.4c-0.5,1.2-1,2.1-1.7,2.6c-0.4,0.3-0.7,0.4-1.1,0.4C39.3,115.7,39.1,115.7,39,115.6z
		 M40.9,113.6c0.3-0.5,0.5-1,0.7-1.6c0.3-1,0.4-2.2,0.4-3.3c0-0.6-0.1-1.2-0.2-2c-0.1-0.7-0.4-1.3-0.8-1.9c-0.2-0.3-0.4-0.5-0.7-0.6
		s-0.6-0.2-0.9-0.2l0,0c0,1,0.1,2.5,0.2,4.6c0.1,2,0.2,3.5,0.2,4.6v1.6C40.2,114.6,40.6,114.2,40.9,113.6z"/>
	<path d="M46.3,115.9c-0.2-0.2-0.4-0.5-0.6-0.8c-0.3-0.6-0.5-1.4-0.7-2.5c-0.1-0.7-0.2-1.6-0.2-2.5v-0.8v-0.9c0-0.3,0-0.6,0-1
		c0-0.6,0-1.2,0.1-1.8c0-0.5,0.1-1,0.3-1.6c0.2-0.4,0.4-0.7,0.7-0.9c0.2-0.1,0.4-0.1,0.6-0.1c0.6,0,1,0.2,1.3,0.7
		c0.4,0.5,0.6,1.1,0.7,1.8c0.2,0.7,0.3,1.6,0.3,2.2c0,0.8,0.1,1.6,0.1,2.2v0.9c0,0.2,0,0.5-0.1,1c0,0.4-0.1,0.7-0.1,1v0.1
		c-0.1,0.3-0.1,0.7-0.1,1.1c0,0.3-0.1,0.6-0.2,0.9s-0.3,0.6-0.5,0.8c-0.2,0.3-0.5,0.4-0.8,0.4C46.8,116.1,46.5,116.1,46.3,115.9z
		 M47.7,114.7c0.1-0.4,0.2-0.8,0.3-1.3c0.1-0.5,0.1-1.1,0.2-1.8c0-0.3,0-0.6,0-1.1v-1.6c0-0.6-0.1-1.3-0.2-2.3
		c-0.1-0.7-0.2-1.4-0.5-2.1c-0.1-0.3-0.2-0.5-0.4-0.6c-0.2-0.1-0.3-0.2-0.5-0.2c-0.3,0-0.5,0.2-0.6,0.6c-0.2,0.4-0.3,0.9-0.3,1.4
		c-0.1,0.6-0.1,1.1-0.1,1.7v0.5c0,0.1,0,0.4,0,0.6v0.1c0,0.7,0.1,1.7,0.2,2.7c0.2,1.4,0.4,2.5,0.8,3.1c0.2,0.4,0.4,0.6,0.7,0.6
		C47.3,115.3,47.5,115.1,47.7,114.7z"/>
	<path d="M53.2,115.4L53.2,115.4c0-0.6-0.1-1.2-0.3-2c-0.2-0.7-0.4-1.6-0.7-2.6c-0.2-0.7-0.4-1.4-0.6-2.1v6.5c0,0.2,0,0.3-0.1,0.4
		c-0.1,0.1-0.2,0.1-0.3,0.1s-0.2,0-0.3-0.1c-0.1-0.1-0.1-0.2-0.1-0.3v-0.1v-4.9c0-1.4,0-3,0-4.9v-2.1c0-0.1,0-0.2,0.1-0.3
		c0.1,0,0.2-0.1,0.3-0.1c0.3,0,0.5,0.1,0.7,0.2c0.2,0.1,0.4,0.2,0.6,0.4c0.3,0.4,0.5,0.8,0.6,1.3c0,0.2,0.1,0.5,0.1,0.7
		c0,0.2,0,0.3,0,0.5c0,0.2,0,0.3-0.1,0.4c0,0.1-0.1,0.3-0.1,0.5c-0.1,0.2-0.1,0.4-0.1,0.4l-0.2,0.4l-0.2,0.4c0,0.4,0.1,0.9,0.2,1.6
		s0.3,1.1,0.4,1.7c0.1,0.4,0.3,0.9,0.6,1.9l0.5,1.4l0,0c0,0.2,0,0.3,0,0.5s-0.1,0.3-0.3,0.3C53.7,115.9,53.5,115.7,53.2,115.4z
		 M52.1,107.4l0.2-1.4c0-0.1,0-0.1,0-0.2c0-0.3-0.1-0.7-0.2-1.1c-0.1-0.2-0.1-0.4-0.2-0.5c-0.1-0.1-0.2-0.2-0.3-0.2v1.7
		c0,0.7,0,1.3,0,1.8c0,0.4,0,0.6,0,0.7C51.7,107.8,51.9,107.6,52.1,107.4z"/>
</g>
<g>
	<path d="M97,115.7c-0.1-0.1-0.2-0.2-0.2-0.4c0-0.1,0-0.2,0.1-0.4c0-0.1,0-0.3,0-0.3c0-0.9-0.1-2.9-0.2-5.7
		c-0.1-2.4-0.2-4.2-0.2-5.7c0-0.1,0-0.2,0.1-0.2c0.1-0.1,0.2-0.1,0.3-0.1s0.2,0,0.3,0.1c0.1,0.1,0.1,0.2,0.1,0.3c0,0.6,0,1.7,0.1,3
		c0.1,1.4,0.1,2.5,0.1,3v0.2v0.2v0.1v0.1c0,0.9,0,2.4,0,4.3v0.4h1.2c0.2,0.2,0.3,0.3,0.3,0.5c0,0.1,0,0.2-0.1,0.3
		c-0.1,0.1-0.2,0.1-0.3,0.1c0,0-0.1,0-0.2,0h-0.1c-0.1,0-0.2,0-0.3,0h-0.3c-0.1,0-0.2,0-0.3,0C97.3,115.7,97.1,115.8,97,115.7
		C97.3,115.9,97.1,115.8,97,115.7z"/>
	<path d="M102.1,115.9c-0.2-0.2-0.4-0.5-0.6-0.8c-0.3-0.6-0.5-1.4-0.7-2.5c-0.1-0.7-0.2-1.6-0.2-2.5v-0.8v-0.9c0-0.3,0-0.6,0-1
		c0-0.6,0-1.2,0.1-1.8c0-0.5,0.1-1,0.3-1.6c0.2-0.4,0.4-0.7,0.7-0.9c0.2-0.1,0.4-0.1,0.6-0.1c0.6,0,1,0.2,1.3,0.7
		c0.4,0.5,0.6,1.1,0.7,1.8c0.2,0.7,0.3,1.6,0.3,2.2c0,0.8,0.1,1.6,0.1,2.2v0.9c0,0.2,0,0.5-0.1,1c0,0.4-0.1,0.7-0.1,1v0.1
		c-0.1,0.3-0.1,0.7-0.1,1.1c0,0.3-0.1,0.6-0.2,0.9s-0.3,0.6-0.5,0.8c-0.2,0.3-0.5,0.4-0.8,0.4C102.6,116.1,102.3,116.1,102.1,115.9z
		 M103.5,114.7c0.1-0.4,0.2-0.8,0.3-1.3s0.1-1.1,0.2-1.8c0-0.3,0-0.6,0-1.1v-1.6c0-0.6-0.1-1.3-0.2-2.3c-0.1-0.7-0.2-1.4-0.5-2.1
		c-0.1-0.3-0.2-0.5-0.4-0.6c-0.2-0.1-0.3-0.2-0.5-0.2c-0.3,0-0.5,0.2-0.6,0.6c-0.2,0.4-0.3,0.9-0.3,1.4c-0.1,0.6-0.1,1.1-0.1,1.7
		v0.5c0,0.1,0,0.4,0,0.6v0.1c0,0.7,0.1,1.7,0.2,2.7c0.2,1.4,0.4,2.5,0.8,3.1c0.2,0.4,0.4,0.6,0.7,0.6
		C103.2,115.3,103.4,115.1,103.5,114.7z"/>
	<path d="M106.7,115.4v-2.1v-2.1c0-0.7,0-1.9,0-3.3c0-1.4,0-2.6,0-3.3v-0.1c0-0.3,0-0.5,0.1-0.8s0.2-0.4,0.5-0.4
		c0.7,0,1.3,0.2,1.9,0.7c0.4,0.5,0.7,1.1,0.7,2c0,0.5-0.1,1-0.4,1.6c-0.3,0.5-0.6,0.9-0.9,1.2c0.6,0.4,1.1,1,1.4,1.7
		c0.3,0.7,0.4,1.4,0.4,2.3c0,0.4-0.1,0.8-0.4,1.4c-0.3,0.7-0.7,1.1-1.3,1.4c-0.3,0.2-0.7,0.2-1.1,0.2h-0.1
		C106.9,115.8,106.7,115.7,106.7,115.4z M108.3,107.8c0.2-0.3,0.3-0.7,0.4-1.1c0-0.1,0.1-0.3,0.2-0.4v-0.6c0-0.3-0.1-0.6-0.4-0.9
		c-0.2-0.3-0.5-0.4-0.8-0.4c-0.1,0-0.2,0.2-0.2,0.5c0,0.7,0,1.3,0,2v1.9C107.8,108.5,108.1,108.3,108.3,107.8z M109,114.3
		c0.3-0.4,0.5-0.9,0.5-1.6c0-0.5,0-0.9-0.1-1.4c-0.1-0.4-0.2-0.7-0.3-0.9c-0.1-0.2-0.2-0.4-0.4-0.5c-0.1-0.1-0.2-0.2-0.3-0.3h-0.1
		h-0.6c0.1,1.2,0.1,3.1,0.1,5.5C108.1,114.9,108.7,114.7,109,114.3z"/>
	<path d="M113.2,115.9c-0.2-0.2-0.4-0.5-0.6-0.8c-0.3-0.6-0.5-1.4-0.7-2.5c-0.1-0.7-0.2-1.6-0.2-2.5v-0.8v-0.9c0-0.3,0-0.6,0-1
		c0-0.6,0-1.2,0.1-1.8c0-0.5,0.1-1,0.3-1.6c0.2-0.4,0.4-0.7,0.7-0.9c0.2-0.1,0.4-0.1,0.6-0.1c0.6,0,1,0.2,1.3,0.7
		c0.4,0.5,0.6,1.1,0.7,1.8c0.2,0.7,0.3,1.6,0.3,2.2c0,0.8,0.1,1.6,0.1,2.2v0.9c0,0.2,0,0.5-0.1,1c0,0.4-0.1,0.7-0.1,1v0.1
		c-0.1,0.3-0.1,0.7-0.1,1.1c0,0.3-0.1,0.6-0.2,0.9c-0.1,0.3-0.3,0.6-0.5,0.8c-0.2,0.3-0.5,0.4-0.8,0.4
		C113.7,116.1,113.4,116.1,113.2,115.9z M114.6,114.7c0.1-0.4,0.2-0.8,0.3-1.3c0.1-0.5,0.1-1.1,0.2-1.8c0-0.3,0-0.6,0-1.1v-1.6
		c0-0.6-0.1-1.3-0.2-2.3c-0.1-0.7-0.2-1.4-0.5-2.1c-0.1-0.3-0.2-0.5-0.4-0.6c-0.2-0.1-0.3-0.2-0.5-0.2c-0.3,0-0.5,0.2-0.6,0.6
		c-0.2,0.4-0.3,0.9-0.3,1.4c-0.1,0.6-0.1,1.1-0.1,1.7v0.5c0,0.1,0,0.4,0,0.6v0.1c0,0.7,0.1,1.7,0.2,2.7c0.2,1.4,0.4,2.5,0.8,3.1
		c0.2,0.4,0.4,0.6,0.7,0.6C114.2,115.3,114.5,115.1,114.6,114.7z"/>
</g>
<g>
	<path d="M165.3,115.7c-0.3-0.1-0.5-0.3-0.6-0.6c-0.2-0.2-0.3-0.5-0.4-0.9c-0.1-0.3-0.2-0.7-0.3-1.1c-0.1-0.6-0.2-1.6-0.3-2.6
		c0-0.2,0-0.7,0-1.3v-1c0-0.3,0-0.6,0-0.9c0-0.6,0-1.1,0.1-1.6c0-0.2,0-0.3,0-0.5c0-0.6,0.2-1.2,0.7-1.7c0.5-0.4,1.1-0.6,1.9-0.6
		c0.3,0,0.5,0.1,0.8,0.2c0.3,0.1,0.4,0.3,0.4,0.6c0,0.1,0,0.2-0.1,0.3c-0.1,0.1-0.2,0.1-0.3,0.1c-0.1,0-0.2,0-0.3,0
		c-0.1,0-0.2-0.1-0.2-0.1h-0.2l0,0c-0.4,0-0.7,0.1-1,0.3c-0.2,0.1-0.3,0.4-0.4,0.7c0,0.1-0.1,0.3-0.1,0.4c0,0.1,0,0.3,0,0.5
		c0,0.1,0,0.3,0,0.5v0.6v0.5c0,0.2,0,0.3-0.1,0.6c-0.1,0.3-0.1,0.5-0.1,0.6v0.4c0,0.4,0,1,0,1.8c0,0.6,0.1,1.2,0.2,1.9
		c0.1,0.6,0.3,1,0.5,1.4c0.3,0.4,0.6,0.6,1,0.6c0.2,0,0.4-0.1,0.7-0.3c0.3-0.2,0.5-0.3,0.6-0.3c0.1,0,0.3,0.1,0.5,0.2
		c0,0.4-0.1,0.7-0.4,0.9c-0.3,0.2-0.6,0.3-1,0.4c-0.2,0-0.4,0-0.5,0C165.9,116,165.6,115.9,165.3,115.7z"/>
	<path d="M172.3,115.6c-0.1-0.1-0.1-0.2-0.1-0.3v-2.2c-0.1-0.1-0.4-0.2-0.8-0.3c-0.4-0.1-0.7-0.1-1.1-0.1c-0.1,0.2-0.2,0.5-0.3,0.8
		l-0.1,0.3c0,0.1,0,0.2-0.1,0.5s-0.1,0.5-0.2,0.7c-0.1,0.2-0.1,0.3-0.2,0.4c-0.4,0-0.6-0.1-0.7-0.3c0.1-0.2,0.3-0.7,0.4-1.6l0.5-3
		c0.2-1.4,0.5-2.7,0.6-3.7c0.2-1,0.4-1.9,0.6-2.6c0.2-0.7,0.5-1.1,0.7-1.1c0.2,0,0.4,0,0.5,0.1c0,0.4,0.1,1.6,0.3,3.2
		c0.2,1.7,0.3,2.8,0.3,3.4s0.1,1.4,0.2,2.5c0.1,1.1,0.2,2,0.2,2.7c0,0.4-0.2,0.5-0.5,0.5C172.6,115.7,172.4,115.7,172.3,115.6z
		 M172.2,112.1c0-0.5-0.1-1-0.2-1.8c-0.2-2.5-0.4-4-0.4-4.6v-0.1c-0.1,0.1-0.3,0.6-0.4,1.4c-0.2,0.9-0.4,1.9-0.5,2.9
		c-0.1,1-0.2,1.7-0.3,2.1c0.4,0.1,0.9,0.2,1.4,0.2C172,112.2,172.1,112.1,172.2,112.1z"/>
	<path d="M175.6,115.6c-0.1-0.1-0.1-0.2-0.1-0.4v-2.8c0-1.3,0-2.4,0-3.1c0-2.6-0.1-4.6-0.4-5.9c0.2-0.2,0.4-0.4,0.6-0.4
		c0.4,0,0.8,0.1,1.1,0.3s0.6,0.4,0.8,0.7c0.4,0.6,0.6,1.3,0.6,2.2c0,0.8-0.2,1.6-0.5,2.2s-0.8,1.1-1.6,1.6v1.7v0.8
		c0,0.2,0,0.4,0,0.8c0,0.7,0,1.3,0,1.8c0,0.2,0,0.4-0.1,0.5s-0.2,0.2-0.4,0.2C175.8,115.8,175.7,115.7,175.6,115.6z M177.2,107.8
		c0.2-0.4,0.3-0.9,0.3-1.6l0,0c0-0.2,0-0.6-0.1-0.9c0-0.1-0.1-0.3-0.2-0.4c-0.1-0.1-0.1-0.2-0.1-0.2c-0.1-0.1-0.3-0.3-0.6-0.5
		l-0.4-0.3c0,0.5,0,1.4,0.1,2.6l0.1,2.6C176.7,108.8,177,108.4,177.2,107.8z"/>
	<path d="M180.4,115.7c-0.2-0.1-0.3-0.2-0.3-0.4v-9.6c0-0.2,0-0.5-0.1-0.8c-0.1-0.3-0.1-0.6-0.1-0.8l0,0c0.2-0.3,0.3-0.5,0.4-0.6
		c0.1,0,0.3,0,0.6-0.1c0.2,0,0.4-0.1,0.6-0.1c0.2,0,0.3,0.1,0.5,0.2c0.2,0.1,0.2,0.2,0.2,0.4c0,0.3-0.2,0.5-0.7,0.5h-0.2
		c-0.1,0-0.1,0-0.2,0c-0.1,0-0.2,0-0.2,0c0,0.4,0,0.8,0.1,1.3v0.4v0.9c0,0.2,0,0.5,0,0.9v0.9h0.2c0.2-0.1,0.4-0.1,0.5-0.1
		s0.2,0,0.3,0.1s0.1,0.2,0.1,0.3c0,0.1,0,0.2-0.1,0.3c-0.1,0.1-0.2,0.2-0.3,0.2h-0.2h-0.2c-0.2,0-0.3,0-0.3,0.1v5.1h0.9
		c0.6,0,0.9,0.1,0.9,0.4v0.1c-0.1,0.1-0.2,0.2-0.4,0.3c-0.2,0.1-0.3,0.1-0.5,0.2h-0.5h-0.5C180.8,115.8,180.6,115.8,180.4,115.7z"/>
	<path d="M187.2,115.4L187.2,115.4c0-0.6-0.1-1.2-0.3-2c-0.2-0.7-0.4-1.6-0.7-2.6c-0.2-0.7-0.4-1.4-0.6-2.1v6.5c0,0.2,0,0.3-0.1,0.4
		c-0.1,0.1-0.2,0.1-0.3,0.1c-0.1,0-0.2,0-0.3-0.1c-0.1-0.1-0.1-0.2-0.1-0.3v-0.1v-4.9c0-1.4,0-3,0-4.9v-2.1c0-0.1,0-0.2,0.1-0.3
		c0.1,0,0.2-0.1,0.3-0.1c0.3,0,0.5,0.1,0.7,0.2c0.2,0.1,0.4,0.2,0.6,0.4c0.3,0.4,0.5,0.8,0.6,1.3c0,0.2,0.1,0.5,0.1,0.7
		c0,0.2,0,0.3,0,0.5c0,0.2,0,0.3-0.1,0.4c0,0.1-0.1,0.3-0.1,0.5c-0.1,0.2-0.1,0.4-0.1,0.4l-0.2,0.4l-0.2,0.4c0,0.4,0.1,0.9,0.2,1.6
		s0.3,1.1,0.4,1.7c0.1,0.4,0.3,0.9,0.6,1.9l0.5,1.4l0,0c0,0.2,0,0.3,0,0.5s-0.1,0.3-0.3,0.3C187.6,115.9,187.4,115.7,187.2,115.4z
		 M186,107.4l0.2-1.4c0-0.1,0-0.1,0-0.2c0-0.3-0.1-0.7-0.2-1.1c-0.1-0.2-0.1-0.4-0.2-0.5c-0.1-0.1-0.2-0.2-0.3-0.2v1.7
		c0,0.7,0,1.3,0,1.8c0,0.4,0,0.6,0,0.7C185.6,107.8,185.8,107.6,186,107.4z"/>
	<path d="M190.7,115.1c-0.4-0.6-0.7-1.3-0.9-2.3c-0.2-0.9-0.3-2-0.4-3c-0.1-0.9-0.1-2.1-0.1-3.2v-1.2c0-0.4,0-0.8,0-1.2
		c-0.1-0.1-0.1-0.2-0.1-0.3c0-0.1,0-0.2,0.1-0.3c0.1-0.1,0.2-0.2,0.3-0.2c0.4,0,0.6,0.4,0.6,1.1c0,0.5,0,1.4,0.1,2.9
		c0.1,1.4,0.1,2.4,0.1,2.9c0.1,0.1,0.1,0.4,0.2,0.8c0,0.4,0.1,0.8,0.1,1c0,0.2,0,0.5,0.1,0.9c0.1,0.4,0.2,0.7,0.3,1
		c0.1,0.4,0.3,0.7,0.5,0.9c0.2,0.2,0.5,0.4,0.7,0.4c0.1,0,0.3,0,0.4-0.1c0.1-0.1,0.2-0.2,0.2-0.4c0.1-0.3,0.1-0.6,0.1-0.9v-3.2
		c0-0.4,0-0.9-0.1-1.6c-0.1-0.7-0.1-1.2-0.1-1.6v-0.2c0-0.2,0-0.3,0-0.5v-0.5c0-0.3,0-0.8,0-1.4c0-0.5-0.1-1-0.1-1.4
		c0-0.1,0.1-0.2,0.2-0.3c0.1-0.1,0.3-0.1,0.4-0.1l0.4,0.4v0.3c0,0.1,0,0.3-0.1,0.5c0,0.3-0.1,0.5-0.1,0.5c0,1,0.1,2.4,0.2,4.1
		c0.1,1.9,0.1,3.3,0.1,4.3c0,0.5-0.1,1-0.2,1.4c-0.1,0.2-0.2,0.4-0.3,0.6c-0.1,0.2-0.3,0.3-0.5,0.4s-0.4,0.2-0.7,0.2
		C191.7,116,191.1,115.7,190.7,115.1z"/>
	<path d="M197.5,115.7c-0.3-0.1-0.5-0.3-0.6-0.6c-0.2-0.2-0.3-0.5-0.4-0.9c-0.1-0.3-0.2-0.7-0.3-1.1c-0.1-0.6-0.2-1.6-0.3-2.6
		c0-0.2,0-0.7,0-1.3v-1c0-0.3,0-0.6,0-0.9c0-0.6,0-1.1,0.1-1.6c0-0.2,0-0.3,0-0.5c0-0.6,0.2-1.2,0.7-1.7c0.5-0.4,1.1-0.6,1.9-0.6
		c0.3,0,0.5,0.1,0.8,0.2c0.2,0.1,0.4,0.3,0.4,0.6c0,0.1,0,0.2-0.1,0.3c-0.1,0.1-0.2,0.1-0.3,0.1c-0.1,0-0.2,0-0.3,0
		c-0.1,0-0.2-0.1-0.2-0.1h-0.2l0,0c-0.4,0-0.7,0.1-1,0.3c-0.2,0.1-0.3,0.4-0.4,0.7c0,0.1-0.1,0.3-0.1,0.4c0,0.2,0,0.3,0,0.5
		c0,0.1,0,0.3,0,0.5v0.6v0.5c0,0.2,0,0.3-0.1,0.6c-0.1,0.3-0.1,0.5-0.1,0.6v0.4c0,0.4,0,1,0,1.8c0,0.6,0.1,1.2,0.2,1.9
		c0.1,0.6,0.3,1,0.5,1.4c0.3,0.4,0.6,0.6,1,0.6c0.2,0,0.4-0.1,0.7-0.3c0.3-0.2,0.5-0.3,0.6-0.3c0.2,0,0.3,0.1,0.5,0.2
		c0,0.4-0.1,0.7-0.4,0.9c-0.3,0.2-0.6,0.3-1,0.4c-0.2,0-0.4,0-0.5,0C198.1,116,197.8,115.9,197.5,115.7z"/>
	<path d="M201.3,115.2c0-0.3,0.2-0.4,0.5-0.4h0.2h0.1c0.1,0,0.1,0,0.2-0.1c0-0.1,0.1-0.1,0.1-0.3c0-0.9-0.1-2.2-0.2-3.8
		c-0.1-1.7-0.1-3-0.1-3.8c0-0.3,0-0.6,0-0.8V105c0-0.4,0-0.6,0-0.9c-0.1,0-0.2,0.1-0.4,0.1c-0.2,0-0.4-0.1-0.4-0.4
		c0-0.1,0.1-0.2,0.2-0.3c0.2-0.1,0.4-0.2,0.6-0.2c0.4-0.1,0.8-0.1,1.1-0.1c0.1,0,0.2,0,0.3,0.1c0.1,0.1,0.1,0.2,0.1,0.3
		s0,0.2-0.1,0.3c-0.1,0.1-0.2,0.1-0.3,0.1s-0.1,0-0.2,0H203c-0.1,0-0.2,0-0.2,0.1c0,0-0.1,0.1-0.1,0.3c0,1.1,0.1,2.8,0.2,4.9
		c0.1,2.2,0.2,3.7,0.2,4.9v0.6c0.1,0,0.2,0,0.3,0c0.4,0,0.7,0.2,0.7,0.6v0.1l-0.4,0.3c0,0,0,0-0.1,0s-0.2,0-0.3,0
		c-0.4,0-0.6,0-0.7,0C201.8,115.7,201.3,115.5,201.3,115.2z"/>
	<path d="M206.8,115.6c-0.1-0.2-0.1-0.3-0.1-0.6c0-0.4,0-0.8,0.1-1.3v-0.4v-0.8c0-0.4,0-1.2-0.1-2.6c-0.1-1.3-0.1-2.2-0.1-2.6
		c0,0,0-0.1,0-0.2c0-0.1,0-0.2,0-0.4c0-0.2,0-0.5,0-0.8c0-0.8-0.1-1.3-0.2-1.6c-0.1,0-0.2,0-0.4,0h-0.4c-0.1,0-0.3,0-0.4-0.1
		c-0.1-0.1-0.2-0.2-0.2-0.3c0-0.1,0.1-0.2,0.4-0.3c0.4-0.1,1-0.2,2-0.3c0.4,0,0.6,0,0.7,0s0.2,0,0.4,0.1c0.1,0.1,0.2,0.2,0.2,0.3
		c0,0.1,0,0.2-0.1,0.3s-0.2,0.1-0.3,0.1H208c-0.1,0-0.2,0-0.3,0h-0.2c0.1,0.7,0.1,1.4,0.1,2.1v1c0,0.3,0,0.7,0,1
		c0,0.5,0,1.1,0.1,1.9c0.1,0.9,0.1,1.6,0.1,1.9c0,0.4,0,0.9,0.1,1.4c0,0.6,0.1,1,0.1,1.4c0,0.5-0.2,0.8-0.5,0.8
		C207,115.8,206.9,115.7,206.8,115.6z"/>
	<path d="M212.8,115.6c-0.1-0.1-0.1-0.2-0.1-0.3v-2.2c-0.1-0.1-0.4-0.2-0.8-0.3c-0.4-0.1-0.7-0.1-1.1-0.1c-0.1,0.2-0.2,0.5-0.3,0.8
		l-0.1,0.3c0,0.1,0,0.2-0.1,0.5c-0.1,0.3-0.1,0.5-0.2,0.7c-0.1,0.2-0.1,0.3-0.2,0.4c-0.4,0-0.6-0.1-0.7-0.3c0.1-0.2,0.3-0.7,0.4-1.6
		l0.5-3c0.2-1.4,0.5-2.7,0.6-3.7c0.2-1,0.4-1.9,0.6-2.6c0.2-0.7,0.5-1.1,0.7-1.1c0.2,0,0.4,0,0.5,0.1c0,0.4,0.1,1.6,0.3,3.2
		c0.2,1.7,0.3,2.8,0.3,3.4s0.1,1.4,0.2,2.5c0.1,1.1,0.2,2,0.2,2.7c0,0.4-0.2,0.5-0.5,0.5C213,115.7,212.9,115.7,212.8,115.6z
		 M212.7,112.1c0-0.5-0.1-1-0.2-1.8c-0.2-2.5-0.4-4-0.4-4.6v-0.1c-0.1,0.1-0.3,0.6-0.4,1.4c-0.2,0.9-0.4,1.9-0.5,2.9
		c-0.1,1-0.2,1.7-0.3,2.1c0.4,0.1,0.9,0.2,1.4,0.2C212.4,112.2,212.6,112.1,212.7,112.1z"/>
</g>
<g>
	<path d="M250.2,115.7c-0.1-0.1-0.2-0.2-0.2-0.4c0-0.1,0-0.2,0.1-0.4c0-0.1,0-0.3,0-0.3c0-0.9-0.1-2.9-0.2-5.7
		c-0.1-2.4-0.2-4.2-0.2-5.7c0-0.1,0-0.2,0.1-0.2c0.1-0.1,0.2-0.1,0.3-0.1c0.1,0,0.2,0,0.3,0.1c0.1,0.1,0.1,0.2,0.1,0.3
		c0,0.6,0,1.7,0.1,3c0.1,1.4,0.1,2.5,0.1,3v0.2v0.2v0.1v0.1c0,0.9,0,2.4,0,4.3v0.4h1.2c0.2,0.2,0.3,0.3,0.3,0.5c0,0.1,0,0.2-0.1,0.3
		c-0.1,0.1-0.2,0.1-0.3,0.1c0,0-0.1,0-0.2,0h-0.1c-0.1,0-0.2,0-0.3,0H251c-0.1,0-0.2,0-0.3,0C250.5,115.7,250.3,115.8,250.2,115.7
		C250.5,115.9,250.3,115.8,250.2,115.7z"/>
	<path d="M254.4,115.7c-0.2-0.1-0.3-0.2-0.3-0.4v-9.6c0-0.2,0-0.5-0.1-0.8c-0.1-0.3-0.1-0.6-0.1-0.8l0,0c0.2-0.3,0.3-0.5,0.4-0.6
		c0.1,0,0.3,0,0.6-0.1c0.2,0,0.4-0.1,0.6-0.1c0.2,0,0.3,0.1,0.5,0.2c0.2,0.1,0.2,0.2,0.2,0.4c0,0.3-0.2,0.5-0.7,0.5h-0.2
		c-0.1,0-0.1,0-0.2,0c-0.1,0-0.2,0-0.2,0c0,0.4,0,0.8,0.1,1.3v0.4v0.9c0,0.2,0,0.5,0,0.9v0.9h0.2c0.2-0.1,0.4-0.1,0.5-0.1
		s0.2,0,0.3,0.1c0.1,0.1,0.1,0.2,0.1,0.3c0,0.1,0,0.2-0.1,0.3c-0.1,0.1-0.2,0.2-0.3,0.2h-0.2h-0.2c-0.2,0-0.3,0-0.3,0.1v5.1h0.9
		c0.6,0,0.9,0.1,0.9,0.4v0.1c-0.1,0.1-0.2,0.2-0.4,0.3c-0.2,0.1-0.3,0.1-0.5,0.2h-0.5h-0.5C254.8,115.8,254.6,115.8,254.4,115.7z"/>
	<path d="M261.3,112.5c-0.7-2.7-1.4-5.1-2-7.4v5.4c0,0.4,0,1.2,0.1,2.4c0.1,1.2,0.1,2,0.1,2.4c0,0.1-0.1,0.2-0.2,0.2
		c-0.1,0.1-0.3,0.1-0.4,0.1c-0.2,0-0.3-0.1-0.3-0.3v-0.5c0-0.3,0-0.6,0-0.7c0-0.6,0-1.6-0.1-2.8s-0.1-2.1-0.1-2.4v-2.1
		c0-0.3,0-0.8,0-1.6c0-0.6,0.1-1.1,0.1-1.6v-0.1c0-0.5,0.1-0.8,0.4-0.8c0.1,0,0.3,0.2,0.5,0.7c0.4,0.8,0.8,2.2,1.3,4.2
		c0.3,1.2,0.7,2.7,1.1,4.6c0,0,0.1,0.3,0.3,1.1v0.1c0-1,0-2.1,0-2.9v-2.9v-4.9c0-0.3,0.2-0.4,0.5-0.4c0.3,0,0.4,0.2,0.4,0.6v0.1
		c-0.1,0.1-0.1,0.3-0.1,0.5c0,0.7,0,1.7,0,3c0,1.3,0,2.4,0,3.1v5.1c0,0.2,0,0.3-0.1,0.5c-0.1,0.2-0.2,0.2-0.3,0.2
		C262.4,115.9,262,114.8,261.3,112.5z M261.2,102.7c-0.2-0.1-0.3-0.2-0.4-0.2c-0.1-0.1-0.2-0.2-0.3-0.2c-0.1-0.1-0.2-0.1-0.4-0.1
		c-0.1,0-0.1,0.1-0.2,0.1c0,0.1,0,0.1,0,0.2l0,0c0,0.1-0.1,0.2-0.2,0.3c-0.2,0-0.3,0-0.4-0.1c-0.1-0.1-0.2-0.2-0.2-0.3
		c0-0.3,0.1-0.5,0.3-0.7s0.5-0.3,0.8-0.3c0.1,0,0.3,0.1,0.7,0.3c0.3,0.2,0.6,0.3,0.7,0.3s0.2,0,0.2-0.1c0.1-0.1,0.1-0.1,0.1-0.2
		s0.1-0.2,0.1-0.2c0.1-0.1,0.1-0.1,0.2-0.1c0.2,0,0.3,0,0.4,0.1c0.1,0.1,0.1,0.2,0.1,0.3c0,0.3-0.1,0.5-0.3,0.7
		c-0.2,0.2-0.4,0.3-0.7,0.3C261.6,102.9,261.4,102.8,261.2,102.7z"/>
	<path d="M268.4,115.6c-0.1-0.1-0.1-0.2-0.1-0.3v-2.2c-0.1-0.1-0.4-0.2-0.8-0.3c-0.4-0.1-0.7-0.1-1.1-0.1c-0.1,0.2-0.2,0.5-0.3,0.8
		l-0.1,0.3c0,0.1,0,0.2-0.1,0.5c-0.1,0.3-0.1,0.5-0.2,0.7c-0.1,0.2-0.1,0.3-0.2,0.4c-0.4,0-0.6-0.1-0.7-0.3c0.1-0.2,0.3-0.7,0.4-1.6
		l0.5-3c0.2-1.4,0.5-2.7,0.6-3.7c0.2-1,0.4-1.9,0.6-2.6c0.2-0.7,0.5-1.1,0.7-1.1c0.2,0,0.4,0,0.5,0.1c0,0.4,0.1,1.6,0.3,3.2
		c0.2,1.7,0.3,2.8,0.3,3.4s0.1,1.4,0.2,2.5c0.1,1.1,0.2,2,0.2,2.7c0,0.4-0.2,0.5-0.5,0.5C268.6,115.7,268.5,115.7,268.4,115.6z
		 M268.2,112.1c0-0.5-0.1-1-0.2-1.8c-0.2-2.5-0.4-4-0.4-4.6v-0.1c-0.1,0.1-0.3,0.6-0.4,1.4s-0.4,1.9-0.5,2.9c-0.1,1-0.2,1.7-0.3,2.1
		c0.4,0.1,0.9,0.2,1.4,0.2C267.9,112.2,268,112.1,268.2,112.1z"/>
	<path d="M271.6,115.6c-0.2-0.1-0.2-0.2-0.2-0.4c0.2-0.2,0.4-0.9,0.4-2c0-0.6,0-1.6-0.1-2.8c-0.1-1.1-0.2-2.1-0.2-2.7v-0.9
		c0-0.3,0-0.5,0-0.9c0-0.3-0.1-0.7-0.2-1.1c-0.1-0.5-0.2-0.8-0.2-1c0-0.4,0.4-0.6,1.2-0.6h0.2c0.6,0,1.1,0.2,1.6,0.5
		c0.3,0.3,0.6,0.7,0.9,1.3c0.2,0.4,0.3,0.9,0.4,1.7c0.1,0.6,0.1,1.1,0.1,1.4v0.5v0.8v0.1c0,0.1,0,0.1,0,0.2c0,0.1,0,0.1,0,0.2
		c0,0.3-0.1,0.7-0.2,1.2c-0.1,0.5-0.2,1-0.4,1.4c-0.5,1.2-1,2.1-1.7,2.6c-0.4,0.3-0.7,0.4-1.1,0.4
		C271.9,115.7,271.7,115.7,271.6,115.6z M273.5,113.6c0.3-0.5,0.5-1,0.7-1.6c0.3-1,0.4-2.2,0.4-3.3c0-0.6-0.1-1.2-0.2-2
		c-0.1-0.7-0.4-1.3-0.8-1.9c-0.2-0.3-0.4-0.5-0.7-0.6c-0.3-0.1-0.6-0.2-0.9-0.2l0,0c0,1,0.1,2.5,0.2,4.6c0.1,2,0.2,3.5,0.2,4.6v1.6
		C272.8,114.6,273.2,114.2,273.5,113.6z"/>
	<path d="M278.9,115.9c-0.2-0.2-0.4-0.5-0.6-0.8c-0.3-0.6-0.5-1.4-0.7-2.5c-0.1-0.7-0.2-1.6-0.2-2.5v-0.8v-0.9c0-0.3,0-0.6,0-1
		c0-0.6,0-1.2,0.1-1.8c0-0.5,0.1-1,0.3-1.6c0.2-0.4,0.4-0.7,0.7-0.9c0.2-0.1,0.4-0.1,0.6-0.1c0.6,0,1,0.2,1.3,0.7
		c0.4,0.5,0.6,1.1,0.7,1.8c0.2,0.7,0.3,1.6,0.3,2.2c0,0.8,0.1,1.6,0.1,2.2v0.9c0,0.2,0,0.5-0.1,1c0,0.4-0.1,0.7-0.1,1v0.1
		c-0.1,0.3-0.1,0.7-0.1,1.1c0,0.3-0.1,0.6-0.2,0.9s-0.3,0.6-0.5,0.8c-0.2,0.3-0.5,0.4-0.8,0.4C279.4,116.1,279.1,116.1,278.9,115.9z
		 M280.3,114.7c0.1-0.4,0.2-0.8,0.3-1.3c0.1-0.5,0.1-1.1,0.2-1.8c0-0.3,0-0.6,0-1.1v-1.6c0-0.6-0.1-1.3-0.2-2.3
		c-0.1-0.7-0.2-1.4-0.5-2.1c-0.1-0.3-0.2-0.5-0.4-0.6c-0.2-0.1-0.3-0.2-0.5-0.2c-0.3,0-0.5,0.2-0.6,0.6c-0.2,0.4-0.3,0.9-0.3,1.4
		c-0.1,0.6-0.1,1.1-0.1,1.7v0.5c0,0.1,0,0.4,0,0.6v0.1c0,0.7,0.1,1.7,0.2,2.7c0.2,1.4,0.4,2.5,0.8,3.1c0.2,0.4,0.4,0.6,0.7,0.6
		C280,115.3,280.2,115.1,280.3,114.7z"/>
	<path d="M285.9,115.4L285.9,115.4c0-0.6-0.1-1.2-0.3-2c-0.2-0.7-0.4-1.6-0.7-2.6c-0.2-0.7-0.4-1.4-0.6-2.1v6.5c0,0.2,0,0.3-0.1,0.4
		c-0.1,0.1-0.2,0.1-0.3,0.1c-0.1,0-0.2,0-0.3-0.1c-0.1-0.1-0.1-0.2-0.1-0.3v-0.1v-4.9c0-1.4,0-3,0-4.9v-2.1c0-0.1,0-0.2,0.1-0.3
		c0.1-0.1,0.2-0.1,0.3-0.1c0.3,0,0.5,0.1,0.7,0.2c0.2,0.1,0.4,0.2,0.6,0.4c0.3,0.4,0.5,0.8,0.6,1.3c0,0.2,0.1,0.5,0.1,0.7
		c0,0.2,0,0.3,0,0.5c0,0.2,0,0.3-0.1,0.4c0,0.1-0.1,0.3-0.1,0.5c-0.1,0.2-0.1,0.4-0.1,0.4l-0.2,0.4l-0.2,0.4c0,0.4,0.1,0.9,0.2,1.6
		c0.1,0.6,0.3,1.1,0.4,1.7c0.1,0.4,0.3,0.9,0.6,1.9l0.5,1.4l0,0c0,0.2,0,0.3,0,0.5s-0.1,0.3-0.3,0.3
		C286.3,115.9,286.1,115.7,285.9,115.4z M284.7,107.4l0.2-1.4c0-0.1,0-0.1,0-0.2c0-0.3-0.1-0.7-0.2-1.1c-0.1-0.2-0.1-0.4-0.2-0.5
		c-0.1-0.1-0.2-0.2-0.3-0.2v1.7c0,0.7,0,1.3,0,1.8c0,0.4,0,0.6,0,0.7C284.3,107.8,284.5,107.6,284.7,107.4z"/>
</g>
<image style="overflow:visible;" width="177" height="177" xlink:href="lenador.png"  transform="matrix(0.3673 0 0 0.3673 237.2158 27.82)">
</image>
<circle class="st0" cx="271" cy="55" r="39.4"/>
<image style="overflow:visible;" width="177" height="177" xlink:href="narrador.png"  transform="matrix(0.3673 0 0 0.3673 1.656 27.3373)">
</image>
<circle class="st0" cx="35.4" cy="54.6" r="39.4"/>
<image style="overflow:visible;" width="177" height="177" xlink:href="caperucita.png"  transform="matrix(0.4006 0 0 0.4006 155.2851 17.9199)">
</image>
<circle class="st0" cx="191" cy="51" r="43"/>
<image style="overflow:visible;" width="177" height="177" xlink:href="lobo.png"  transform="matrix(0.3502 0 0 0.3502 84.8538 28.2938)">
</image>
<circle class="st0" cx="111.7" cy="54.6" r="39.4"/>
</svg>
